<svg id="Layer_1" data-name="Layer 1" xmlns="http://www.w3.org/2000/svg" viewBox="0 0 78.52 96.15"><defs><style>.cls-1{fill:#f26544;}.cls-2,.cls-3{fill:none;stroke:#f26544;stroke-width:3.09px;}.cls-2{stroke-miterlimit:10;}.cls-3{stroke-linecap:round;stroke-linejoin:round;}</style></defs><path class="cls-1" d="M296.87,393.29h-4.49l-.65,2h-2.94l4.54-12.69h2.58l4.55,12.69h-2.94Zm-.87-2.67-.82-2.46c-.24-.73-.53-1.87-.55-1.87h0s-.31,1.14-.56,1.87l-.81,2.46Z" transform="translate(-266.67 -348.29)"/><path class="cls-1" d="M308.34,395.28l-2.11-4.13h-1.39v4.13h-2.73V382.59h4.24c2.85,0,4.57,1.74,4.57,4.35a3.86,3.86,0,0,1-2,3.66l2.51,4.68Zm-3.5-6.83h1.88a1.51,1.51,0,0,0,0-3h-1.88Z" transform="translate(-266.67 -348.29)"/><path class="cls-1" d="M318.11,382.59c2.79,0,4.48,1.63,4.48,4.35s-1.69,4.35-4.48,4.35h-1.6v4h-2.73V382.59Zm-.05,5.86c1.06,0,1.69-.57,1.69-1.51s-.63-1.5-1.69-1.5h-1.55v3Z" transform="translate(-266.67 -348.29)"/><path class="cls-2" d="M307.76,352,316,368.56a3.81,3.81,0,0,0,2.88,2.09l18.31,2.66a3.83,3.83,0,0,1,2.12,6.53L326,392.75a3.85,3.85,0,0,0-1.1,3.39L328,414.37a3.84,3.84,0,0,1-5.56,4l-16.37-8.61a3.8,3.8,0,0,0-3.56,0l-16.38,8.61a3.83,3.83,0,0,1-5.55-4l3.13-18.23a3.85,3.85,0,0,0-1.1-3.39L269.4,379.84a3.83,3.83,0,0,1,2.12-6.53l18.31-2.66a3.83,3.83,0,0,0,2.88-2.09L300.9,352A3.82,3.82,0,0,1,307.76,352Z" transform="translate(-266.67 -348.29)"/><polyline class="cls-3" points="13.95 66.08 1.54 90.16 11.66 84.76 15.14 94.6 35.88 61.51"/><polyline class="cls-3" points="61.37 66.08 76.97 88.91 67.01 86.65 64.23 94.6 39.44 61.51"/></svg>