<svg xmlns="http://www.w3.org/2000/svg" viewBox="0 0 55.85 56.04"><defs><style>.cls-1{fill:none;stroke:#f26544;stroke-miterlimit:10;stroke-width:1.79px;}.cls-2{fill:#f26544;}</style></defs><g id="Layer_2" data-name="Layer 2"><g id="Layer_1-2" data-name="Layer 1"><path class="cls-1" d="M14.7,32.77s6.05-14,6.09-17.55a11.61,11.61,0,0,1,.26-2.82,5.23,5.23,0,0,1,1.64-2.56,4.25,4.25,0,0,1,5.15-.31s3.4,3.18,4.63,2.78c0,0,2.87.35,4.41-1.37a4,4,0,0,1,1.9-1.23s2.95-.09,2,3.39c0,0-2,2.69-4.67,3l-6,.44L28.2,21.7"/><path class="cls-1" d="M19.91,22.28h5.77s2.69-.36,3.71.44a3.56,3.56,0,0,1,1.85,4.45L29,36.25a2.37,2.37,0,0,1-1.41,1.81,2.16,2.16,0,0,1-2.61-2.64l1.37-8.07-2.91,0L15.28,43.57s-.93,1.9-1.87,2.16c0,0-2.5.44-2.37-1.85l.71-3.79"/><path class="cls-1" d="M20.46,17.22,16.25,19.1s-1.68.62-2.25,0a1.85,1.85,0,0,1-.66-2.87A5.94,5.94,0,0,1,15,15.13s3-1.22,3.49-1.44l4.65-4.2"/><polyline class="cls-1" points="23.74 48.86 17.66 54.77 14.48 51.51 35.56 30.43 40.32 34.75 47.03 28.41 44.6 25.98 54.74 24.3 53.07 33.52 50.02 31.49 40.96 41.02 36 36.52 29.7 42.6"/><circle class="cls-2" cx="26.8" cy="45.77" r="1.28"/><circle class="cls-2" cx="13.21" cy="36.77" r="1.28"/><circle class="cls-1" cx="28.44" cy="4.97" r="4.07"/><rect class="cls-1" x="3.77" y="15.66" width="10.98" height="13.89" rx="1.04" transform="translate(-13.27 13.17) rotate(-45)"/><line class="cls-1" x1="5.01" y1="17.88" x2="13.8" y2="26.66"/><path class="cls-1" d="M6.1,19.92h6.05a0,0,0,0,1,0,0v2.55a2.73,2.73,0,0,1-2.73,2.73H8.58A2.48,2.48,0,0,1,6.1,22.72v-2.8a0,0,0,0,1,0,0Z" transform="translate(19.15 0.38) rotate(46.36)"/></g></g></svg>