<svg xmlns="http://www.w3.org/2000/svg" viewBox="0 0 46.2 47.63"><defs><style>.cls-1,.cls-2,.cls-3,.cls-4{fill:none;stroke:#f26544;}.cls-1,.cls-2,.cls-3{stroke-miterlimit:10;}.cls-1{stroke-width:1.79px;}.cls-2{stroke-width:1.7px;}.cls-3,.cls-4{stroke-width:1.69px;}.cls-4{stroke-linecap:round;stroke-linejoin:round;}</style></defs><g id="Layer_2" data-name="Layer 2"><g id="Layer_1-2" data-name="Layer 1"><path class="cls-1" d="M9.7,11V3.83S10.08.9,12.64.9H35.36a4.45,4.45,0,0,1,3,1.48L43.72,8.5a4.46,4.46,0,0,1,1.54,3.79V43s.42,3.42-3.85,3.47L14.2,46.7s-3.73.58-4.5-2.87V41.3"/><circle class="cls-1" cx="13.45" cy="26.11" r="12.55"/><circle class="cls-1" cx="13.45" cy="26.11" r="9.43"/><line class="cls-1" x1="28.97" y1="18.7" x2="40.97" y2="18.7"/><line class="cls-1" x1="28.97" y1="22.7" x2="40.97" y2="22.7"/><line class="cls-1" x1="28.97" y1="26.7" x2="40.97" y2="26.7"/><line class="cls-1" x1="28.97" y1="30.7" x2="34.97" y2="30.7"/><path class="cls-1" d="M36.34,1V8.59S36.21,9.8,37,10.2h7.4"/><rect class="cls-1" x="14.51" y="5.34" width="13.4" height="4.68" rx="1.31"/><path class="cls-2" d="M32.38,45.39h0a2.38,2.38,0,0,1-3.38,0l-5-4.77a1.7,1.7,0,0,1,0-2.41l1.11-1.12a1.35,1.35,0,0,1,1.91,0l5.37,5.13A2.23,2.23,0,0,1,32.38,45.39Z"/><rect class="cls-1" x="22.2" y="34.68" width="2.58" height="3.39" transform="translate(-18.7 26.62) rotate(-44.13)"/><path class="cls-3" d="M9.89,27.28a1.15,1.15,0,0,0-.8-1.45V21.69s.5-1.73,2-1.68H15s1.06.45.9.84c0,0-.4,1.13.16,1.11.84,0,.95.29.95.29V25s-1.56,1.12-1.06,2C15.91,27,13.65,31.2,9.89,27.28Z"/><path class="cls-3" d="M9.31,23.93l3.83.37s.95-1.67,2.3-1.59l1.53.18"/><path class="cls-4" d="M6.76,32a5.86,5.86,0,0,1,3.13-1.57l1.27.35V28.35"/><path class="cls-3" d="M14.67,28.35s-.27,2.23.29,2.4,4.63.37,5.08,2.1"/><path class="cls-3" d="M10.47,30.61c.19-.26,2.53,1.41,5.06-.16"/></g></g></svg>