<svg xmlns="http://www.w3.org/2000/svg" viewBox="0 0 45.97 46.46"><defs><style>.cls-1,.cls-3,.cls-4{fill:none;stroke:#4F9E99;stroke-miterlimit:10;}.cls-1{stroke-width:1.65px;}.cls-2{fill:#4F9E99;}.cls-3,.cls-4{stroke-width:1.79px;}.cls-4{stroke-linecap:round;}</style></defs><g id="Layer_2" data-name="Layer 2"><g id="Layer_1-2" data-name="Layer 1"><circle class="cls-1" cx="9.39" cy="11.36" r="3.78"/><circle class="cls-2" cx="13.85" cy="35.49" r="0.9"/><circle class="cls-2" cx="45.07" cy="19.12" r="0.9"/><path class="cls-3" d="M5.11,17.77s-2.6.31-3.51,1.76L.91,20.84V31.1a1.9,1.9,0,0,0,.39,1.45,1.53,1.53,0,0,0,2.38.57l1-1.34V42.46s-.05,2,.46,2.22a2.4,2.4,0,0,0,3.67,0L9.22,44v-13"/><line class="cls-3" x1="4.61" y1="22.61" x2="4.61" y2="33.12"/><path class="cls-3" d="M3.6,18.14s5.1-1.59,9.06-.37l7.56-3.58s1.54-.93,2.19-.52c0,0,1.45.56,1.13,1.82a2.27,2.27,0,0,1-1.42,2.06l-8,3.44L14,32.19"/><path class="cls-3" d="M14,38.9v4.25s-.1,1.49-1,1.65a2.4,2.4,0,0,1-3.28-.36"/><path class="cls-3" d="M9.22,5.31a2.23,2.23,0,0,1,2.42-2.42H42.43s2.64.11,2.64,2.42V15.66"/><rect class="cls-2" x="26.19" width="1.9" height="2.9" rx="0.95"/><path class="cls-3" d="M14.38,28.08H42.94a1.57,1.57,0,0,0,1.91-1.16V22.23"/><rect class="cls-2" x="17.66" y="7.57" width="18.9" height="1.89" rx="0.95"/><rect class="cls-2" x="25.45" y="11.36" width="14.69" height="1.89" rx="0.95"/><rect class="cls-2" x="26.19" y="14.93" width="13.95" height="1.89" rx="0.95"/><rect class="cls-2" x="24.28" y="18.58" width="16.13" height="1.89" rx="0.95"/><line class="cls-4" x1="25.74" y1="29.77" x2="25.74" y2="42.9"/><line class="cls-4" x1="25.45" y1="37.78" x2="17.48" y2="44.96"/><line class="cls-4" x1="25.74" y1="37.24" x2="34.43" y2="45.29"/></g></g></svg>