<svg xmlns="http://www.w3.org/2000/svg" xmlns:xlink="http://www.w3.org/1999/xlink" width="170" height="170" viewBox="0 0 170 170">
  <defs>
    <clipPath id="clip-path">
      <rect id="Rectangle_95" data-name="Rectangle 95" width="102.621" height="91.498" fill="none" stroke="#e06e4f" stroke-width="4"/>
    </clipPath>
    <clipPath id="clip-Federal_Financial_Reporting">
      <rect width="170" height="170"/>
    </clipPath>
  </defs>
  <g id="Federal_Financial_Reporting" data-name="Federal Financial Reporting" clip-path="url(#clip-Federal_Financial_Reporting)">
    <rect width="170" height="170" fill="none"/>
    <g id="Group_3" data-name="Group 3" transform="translate(33.689 39.25)">
      <line id="Line_1" data-name="Line 1" x2="44.741" transform="translate(33.371 17.08)" fill="none" stroke="#e06e4f" stroke-linecap="round" stroke-linejoin="round" stroke-width="4"/>
      <line id="Line_2" data-name="Line 2" x1="43.09" transform="translate(11.176 84.363)" fill="none" stroke="#e06e4f" stroke-linecap="round" stroke-linejoin="round" stroke-width="4"/>
      <g id="Group_2" data-name="Group 2">
        <g id="Group_1" data-name="Group 1" clip-path="url(#clip-path)">
          <path id="Path_16" data-name="Path 16" d="M71.787,30.94V6.378A1.916,1.916,0,0,1,73.7,4.462h65.159a1.916,1.916,0,0,1,1.916,1.916v36.1" transform="translate(-50.743 -3.154)" fill="none" stroke="#e06e4f" stroke-linecap="round" stroke-linejoin="round" stroke-width="4"/>
          <line id="Line_3" data-name="Line 3" x2="19.388" transform="translate(58.725 31.989)" fill="none" stroke="#e06e4f" stroke-linecap="round" stroke-linejoin="round" stroke-width="4"/>
          <line id="Line_4" data-name="Line 4" x2="16.003" transform="translate(33.371 57.258)" fill="none" stroke="#e06e4f" stroke-linecap="round" stroke-linejoin="round" stroke-width="4"/>
          <line id="Line_5" data-name="Line 5" x2="14.132" transform="translate(33.371 70.662)" fill="none" stroke="#e06e4f" stroke-linecap="round" stroke-linejoin="round" stroke-width="4"/>
          <rect id="Rectangle_94" data-name="Rectangle 94" width="14.649" height="16.116" transform="translate(33.371 29.111)" fill="none" stroke="#e06e4f" stroke-linecap="round" stroke-linejoin="round" stroke-width="4"/>
          <line id="Line_6" data-name="Line 6" y2="4.334" transform="translate(11.176 65.989)" fill="none" stroke="#e06e4f" stroke-linecap="round" stroke-linejoin="round" stroke-width="4"/>
          <path id="Path_17" data-name="Path 17" d="M24.2,94.786V141.5a9.868,9.868,0,0,1-9.868,9.868h0A9.868,9.868,0,0,1,4.462,141.5V100.932c0-4.725,2.209-6.146,4.934-6.146s4.934,1.556,4.934,6.146v24.955" transform="translate(-3.154 -67)" fill="none" stroke="#e06e4f" stroke-linecap="round" stroke-linejoin="round" stroke-width="4"/>
          <line id="Line_7" data-name="Line 7" x2="8.262" transform="translate(6.242 27.786)" fill="none" stroke="#e06e4f" stroke-linecap="round" stroke-linejoin="round" stroke-width="4"/>
          <ellipse id="Ellipse_1" data-name="Ellipse 1" cx="23.201" cy="23.168" rx="23.201" ry="23.168" transform="translate(54.912 43.854)" fill="none" stroke="#e06e4f" stroke-linecap="round" stroke-linejoin="round" stroke-width="4"/>
          <path id="Path_18" data-name="Path 18" d="M246.549,213.331c.687,1.4,2.257,3.075,5.837,3.075,6.138,0,6.236-3.464,6.236-4.279s.082-4.4-6.236-5.217-5.828-3.987-5.828-4.663.18-4.344,5.828-4.344c3.286,0,4.71,1.341,5.326,2.462" transform="translate(-174.274 -139.888)" fill="none" stroke="#e06e4f" stroke-linecap="round" stroke-linejoin="round" stroke-width="4"/>
          <line id="Line_8" data-name="Line 8" y2="3.392" transform="translate(78.113 76.518)" fill="none" stroke="#e06e4f" stroke-linecap="round" stroke-linejoin="round" stroke-width="4"/>
          <line id="Line_9" data-name="Line 9" y2="3.351" transform="translate(78.113 54.664)" fill="none" stroke="#e06e4f" stroke-linecap="round" stroke-linejoin="round" stroke-width="4"/>
        </g>
      </g>
    </g>
  </g>
</svg>
