<svg xmlns="http://www.w3.org/2000/svg" xmlns:xlink="http://www.w3.org/1999/xlink" width="170" height="170" viewBox="0 0 170 170">
  <defs>
    <clipPath id="clip-path">
      <rect id="Rectangle_99" data-name="Rectangle 99" width="91.316" height="76.375" fill="none" stroke="#e06e4f" stroke-width="4"/>
    </clipPath>
    <clipPath id="clip-Federal_Financial_Assistance">
      <rect width="170" height="170"/>
    </clipPath>
  </defs>
  <g id="Federal_Financial_Assistance" data-name="Federal Financial Assistance" clip-path="url(#clip-Federal_Financial_Assistance)">
    <rect width="170" height="170" fill="none"/>
    <g id="Group_69" data-name="Group 69" transform="translate(39.342 46.813)">
      <g id="Group_6" data-name="Group 6" clip-path="url(#clip-path)">
        <path id="Path_27" data-name="Path 27" d="M153.063,138.976c-.69-1.841-2.456-3.17-5.3-3.17-3.658,0-5.743,2.1-5.743,4.705,0,2.435,2.038,3.883,5.948,4.722,3.842.825,5.488,2.2,5.488,4.729,0,2.662-2.259,4.663-5.718,4.663s-5.175-1.39-5.811-3.393" transform="translate(-102.035 -97.633)" fill="none" stroke="#e06e4f" stroke-linecap="round" stroke-linejoin="round" stroke-width="4"/>
        <line id="Line_11" data-name="Line 11" y2="3.33" transform="translate(45.705 56.993)" fill="none" stroke="#e06e4f" stroke-linecap="round" stroke-linejoin="round" stroke-width="4"/>
        <line id="Line_12" data-name="Line 12" y2="3.163" transform="translate(45.705 35.01)" fill="none" stroke="#e06e4f" stroke-linecap="round" stroke-linejoin="round" stroke-width="4"/>
        <rect id="Rectangle_98" data-name="Rectangle 98" width="88.808" height="54.909" transform="translate(1.254 20.212)" fill="none" stroke="#e06e4f" stroke-linecap="round" stroke-linejoin="round" stroke-width="4"/>
        <ellipse id="Ellipse_6" data-name="Ellipse 6" cx="16.814" cy="19.861" rx="16.814" ry="19.861" transform="translate(28.844 27.806)" fill="none" stroke="#e06e4f" stroke-linecap="round" stroke-linejoin="round" stroke-width="4"/>
        <circle id="Ellipse_7" data-name="Ellipse 7" cx="0.927" cy="0.927" r="0.927" transform="translate(72.435 46.739)" fill="none" stroke="#e06e4f" stroke-linecap="round" stroke-linejoin="round" stroke-width="4"/>
        <circle id="Ellipse_8" data-name="Ellipse 8" cx="0.927" cy="0.927" r="0.927" transform="translate(17.56 46.739)" fill="none" stroke="#e06e4f" stroke-linecap="round" stroke-linejoin="round" stroke-width="4"/>
        <path id="Path_28" data-name="Path 28" d="M271.712,104.529a11.283,11.283,0,0,1-10.319-10.321" transform="translate(-187.92 -67.728)" fill="none" stroke="#e06e4f" stroke-linecap="round" stroke-linejoin="round" stroke-width="4"/>
        <path id="Path_29" data-name="Path 29" d="M271.712,208.236a11.283,11.283,0,0,0-10.319,10.321" transform="translate(-187.92 -149.705)" fill="none" stroke="#e06e4f" stroke-linecap="round" stroke-linejoin="round" stroke-width="4"/>
        <path id="Path_30" data-name="Path 30" d="M26.772,104.529A11.283,11.283,0,0,0,37.091,94.208" transform="translate(-19.247 -67.728)" fill="none" stroke="#e06e4f" stroke-linecap="round" stroke-linejoin="round" stroke-width="4"/>
        <path id="Path_31" data-name="Path 31" d="M26.772,208.236a11.283,11.283,0,0,1,10.319,10.321" transform="translate(-19.247 -149.705)" fill="none" stroke="#e06e4f" stroke-linecap="round" stroke-linejoin="round" stroke-width="4"/>
        <line id="Line_13" data-name="Line 13" x1="72.114" transform="translate(9.601 10.918)" fill="none" stroke="#e06e4f" stroke-linecap="round" stroke-linejoin="round" stroke-width="4"/>
        <line id="Line_14" data-name="Line 14" x1="75.182" transform="translate(8.067 10.918)" fill="none" stroke="#e06e4f" stroke-linecap="round" stroke-linejoin="round" stroke-width="4"/>
        <line id="Line_15" data-name="Line 15" x2="61.555" transform="translate(14.881 1.254)" fill="none" stroke="#e06e4f" stroke-linecap="round" stroke-linejoin="round" stroke-width="4"/>
      </g>
    </g>
  </g>
</svg>
