<svg xmlns="http://www.w3.org/2000/svg" viewBox="0 0 57.67 38.22"><defs><style>.cls-1{fill:none;stroke:#4F9E99;stroke-miterlimit:10;stroke-width:1.79px;}</style></defs><g id="Layer_2" data-name="Layer 2"><g id="Layer_1-2" data-name="Layer 1"><path class="cls-1" d="M50.47.74l-5.88,4A4.41,4.41,0,0,1,40,5.1S35.12,2,32.22,3.18L23,6.2s-2.51.55-2.43,1c0,0-1.25,2,3,4.77l7-.63s.86,7.67,9.16,3.83"/><path class="cls-1" d="M8.13.74s3.68,3.19,4.54,3.35c0,0,4.93.62,7.27-.16,0,0,4.46-3.19,8.67.43"/><line class="cls-1" x1="57.18" y1="15.59" x2="46.85" y2="22.37"/><path class="cls-1" d="M37.54,17.62l7.59,4s2.63,1.37,2.29,3.45c0,0-1,2.09-2.76,1.85l-6.57-3.49"/><path class="cls-1" d="M38.09,23.41l4.08,1.86s2.63,1.37,2.29,3.45c0,0-1,2.08-2.75,1.85l-6.58-3.49"/><path class="cls-1" d="M32,30.82l1.6.73s2.63,1.37,2.29,3.45c0,0,0,2.81-3.1,2.26l-4.65-2.69"/><path class="cls-1" d="M34.93,27.5,39,29.35a5,5,0,0,1,.79,2.35s-1,2.43-2.69,2.2L32,31.17"/><polyline class="cls-1" points="0.39 12.58 8.13 16.27 10.85 20.12"/><path class="cls-1" d="M19.45,19.22l-5.68,6.53a2.82,2.82,0,0,1-3.91.77h0a2.83,2.83,0,0,1-.77-3.91l5.69-6.53a2.82,2.82,0,0,1,3.91-.77h0A2.82,2.82,0,0,1,19.45,19.22Z"/><path class="cls-1" d="M23.77,22.43,18.09,29a2.82,2.82,0,0,1-3.91.77h0a2.82,2.82,0,0,1-.77-3.91l5.69-6.53a2.8,2.8,0,0,1,3.9-.77h0A2.81,2.81,0,0,1,23.77,22.43Z"/><path class="cls-1" d="M28.14,26l-5.68,6.53a2.81,2.81,0,0,1-3.91.77h0a2.82,2.82,0,0,1-.77-3.91l5.69-6.53a2.81,2.81,0,0,1,3.91-.77h0A2.82,2.82,0,0,1,28.14,26Z"/><path class="cls-1" d="M30.72,31.24l-2.6,3.33a2.82,2.82,0,0,1-3.91.77h0a2.82,2.82,0,0,1-.77-3.91L26,28.1A2.82,2.82,0,0,1,30,27.34h0A2.8,2.8,0,0,1,30.72,31.24Z"/></g></g></svg>