<svg xmlns="http://www.w3.org/2000/svg" xmlns:xlink="http://www.w3.org/1999/xlink" width="340" height="335" viewBox="0 0 340 335">
  <defs>
    <clipPath id="clip-path">
      <rect id="Rectangle_142" data-name="Rectangle 142" width="172.189" height="143.488" fill="#e16e4e"/>
    </clipPath>
    <clipPath id="clip-Payment_Integrity">
      <rect width="340" height="335"/>
    </clipPath>
  </defs>
  <g id="Payment_Integrity" data-name="Payment Integrity" clip-path="url(#clip-Payment_Integrity)">
    <rect width="340" height="335" fill="none"/>
    <g id="Group_65" data-name="Group 65" transform="translate(83.906 95.756)">
      <g id="Group_62" data-name="Group 62" clip-path="url(#clip-path)">
        <path id="Path_79" data-name="Path 79" d="M169.319,14.346c-18.39,0-29.223-13.144-29.327-13.272a2.873,2.873,0,0,0-4.477-.005c-.108.133-10.941,13.277-29.332,13.277a2.87,2.87,0,0,0-2.87,2.87V28.694H17.219A17.238,17.238,0,0,0,0,45.913v80.355a17.238,17.238,0,0,0,17.219,17.219H143.491a17.238,17.238,0,0,0,17.219-17.219V78.328c6.37-6.507,11.4-11.568,11.479-20.474V17.215a2.87,2.87,0,0,0-2.87-2.87M154.97,126.268a11.492,11.492,0,0,1-11.479,11.479H17.219A11.492,11.492,0,0,1,5.74,126.268V45.913A11.492,11.492,0,0,1,17.219,34.434h86.095V57.854a20.093,20.093,0,0,0,4.015,12.054c4.781,6.313,15.753,18.445,30.423,21.923C144.326,90.4,150.2,86.8,154.97,83.265Zm11.479-68.415a14.117,14.117,0,0,1-2.854,8.593c-4.284,5.668-13.274,15.629-25.844,19.52-12.569-3.891-21.56-13.851-25.845-19.52a14.124,14.124,0,0,1-2.853-8.593V19.994a45.664,45.664,0,0,0,28.7-12.921,45.664,45.664,0,0,0,28.7,12.921Z" transform="translate(0 0.001)" fill="#e16e4e"/>
        <path id="Path_80" data-name="Path 80" d="M317.013,96.093a2.87,2.87,0,0,0-4.19,3.923l13.435,14.349a2.888,2.888,0,0,0,4.347-.184l18.133-22.958a2.869,2.869,0,0,0-4.5-3.557l-16.065,20.341Z" transform="translate(-192.162 -53.316)" fill="#e16e4e"/>
        <path id="Path_81" data-name="Path 81" d="M58.341,158.555H86.42a6.057,6.057,0,0,0,6.049-6.049V133.036a6.057,6.057,0,0,0-6.049-6.049H58.341a6.057,6.057,0,0,0-6.049,6.049v19.469a6.057,6.057,0,0,0,6.049,6.049m-.31-6.049v-6.865H69.511v7.175H58.341a.31.31,0,0,1-.31-.31m28.7-19.469v19.469a.31.31,0,0,1-.31.31H75.251V132.727H86.42a.31.31,0,0,1,.31.31m-28.389-.31h11.17V139.9H58.032v-6.865a.31.31,0,0,1,.31-.31" transform="translate(-32.203 -78.203)" fill="#e16e4e"/>
        <path id="Path_82" data-name="Path 82" d="M155.633,307.529H55.189a2.87,2.87,0,0,0,0,5.74H155.633a2.87,2.87,0,0,0,0-5.74" transform="translate(-32.231 -189.388)" fill="#e16e4e"/>
        <path id="Path_83" data-name="Path 83" d="M55.162,258.968a2.87,2.87,0,0,0,2.87-2.87v-8.609a2.87,2.87,0,0,0-5.739,0V256.1a2.87,2.87,0,0,0,2.87,2.87" transform="translate(-32.203 -150.645)" fill="#e16e4e"/>
        <path id="Path_84" data-name="Path 84" d="M93.644,244.619a2.87,2.87,0,0,0-2.87,2.87V256.1a2.87,2.87,0,0,0,5.74,0v-8.609a2.87,2.87,0,0,0-2.87-2.87" transform="translate(-55.902 -150.645)" fill="#e16e4e"/>
        <path id="Path_85" data-name="Path 85" d="M129.26,247.515v8.61a2.87,2.87,0,0,0,5.74,0v-8.61a2.87,2.87,0,0,0-5.74,0" transform="translate(-79.603 -150.671)" fill="#e16e4e"/>
        <path id="Path_86" data-name="Path 86" d="M170.613,258.968a2.87,2.87,0,0,0,2.87-2.87v-8.609a2.87,2.87,0,1,0-5.739,0V256.1a2.87,2.87,0,0,0,2.87,2.87" transform="translate(-103.302 -150.645)" fill="#e16e4e"/>
        <path id="Path_87" data-name="Path 87" d="M226.851,258.968a2.87,2.87,0,0,0,2.87-2.87v-8.609a2.87,2.87,0,0,0-5.739,0V256.1a2.87,2.87,0,0,0,2.87,2.87" transform="translate(-137.936 -150.645)" fill="#e16e4e"/>
        <path id="Path_88" data-name="Path 88" d="M265.334,258.968a2.87,2.87,0,0,0,2.87-2.87v-8.609a2.87,2.87,0,0,0-5.739,0V256.1a2.87,2.87,0,0,0,2.87,2.87" transform="translate(-161.635 -150.645)" fill="#e16e4e"/>
      </g>
    </g>
  </g>
</svg>
