<svg xmlns="http://www.w3.org/2000/svg" viewBox="0 0 47.52 51.96"><defs><style>.cls-1{fill:#fff;stroke:#f26544;stroke-miterlimit:10;stroke-width:1.79px;}</style></defs><g id="Layer_2" data-name="Layer 2"><g id="Layer_1-2" data-name="Layer 1"><line class="cls-1" x1="1.59" y1="7.22" x2="12.58" y2="10.45"/><line class="cls-1" x1="1.37" y1="19.48" x2="12.33" y2="16.14"/><line class="cls-1" x1="46.09" y1="19.48" x2="35.11" y2="16.25"/><line class="cls-1" x1="46.32" y1="7.22" x2="35.36" y2="10.56"/><path class="cls-1" d="M18.12,9.4a5.88,5.88,0,0,1,5.59-6.14A5.88,5.88,0,0,1,29.3,9.4"/><rect class="cls-1" x="18.12" y="9.4" width="11.18" height="7.1"/><rect class="cls-1" x="15.39" y="16.64" width="16.63" height="6.28"/><line class="cls-1" x1="14.64" y1="9.4" x2="32.92" y2="9.4"/><polygon class="cls-1" points="19.13 22.83 16.14 45.34 31.27 45.34 28.43 22.83 19.13 22.83"/><line class="cls-1" x1="25.77" y1="22.83" x2="18.47" y2="30.83"/><line class="cls-1" x1="23.23" y1="34.13" x2="17.13" y2="40.82"/><line class="cls-1" x1="29.83" y1="36.67" x2="22.02" y2="45.24"/><path class="cls-1" d="M.72,45.15S5.13,51,9,45.34c0,0,3.21,5,7.19,0H31.27s3.82,4.67,7.64,0c0,0,3.64,4.8,7.93-.19"/><path class="cls-1" d="M18.46,46.48H30a3.57,3.57,0,0,1,3.57,3.57v1a0,0,0,0,1,0,0H14.64a0,0,0,0,1,0,0V50.3A3.82,3.82,0,0,1,18.46,46.48Z"/><line class="cls-1" x1="23.71" y1="3.26" x2="23.71"/></g></g></svg>