<svg xmlns="http://www.w3.org/2000/svg" viewBox="0 0 48.8 46.31"><defs><style>.cls-1,.cls-2{fill:#fff;stroke:#f26544;stroke-miterlimit:10;}.cls-1{stroke-width:1.4px;}.cls-2{stroke-width:1.35px;}</style></defs><g id="Layer_2" data-name="Layer 2"><g id="Layer_1-2" data-name="Layer 1"><rect class="cls-1" x="0.7" y="13.85" width="47.4" height="23.47" rx="0.57"/><rect class="cls-1" x="0.7" y="9.97" width="47.4" height="23.47" rx="0.57"/><rect class="cls-1" x="0.7" y="6.09" width="47.4" height="23.47" rx="0.57"/><rect class="cls-1" x="0.7" y="2.21" width="47.4" height="23.47" rx="0.57"/><rect class="cls-1" x="4.34" y="6.41" width="40.12" height="15.3"/><path class="cls-1" d="M4.9,17.38A4.34,4.34,0,0,1,9.27,21.7"/><path class="cls-1" d="M8.66,6.82a4.34,4.34,0,0,1-4.32,4.37"/><path class="cls-1" d="M44.46,11.17a4.35,4.35,0,0,1-4.37-4.32"/><path class="cls-1" d="M40.12,21.15a4.34,4.34,0,0,1,4.31-4.37"/><rect class="cls-2" x="20.37" y="0.67" width="8.07" height="28.88"/><polygon class="cls-1" points="15.78 44.89 14.85 41.04 11.18 40.28 18.03 33.44 22.63 38.04 15.78 44.89"/><circle class="cls-2" cx="24.4" cy="30.44" r="7.33"/><polygon class="cls-1" points="38.46 40.33 34.6 41.24 33.82 44.9 27.02 37.99 31.66 33.43 38.46 40.33"/></g></g></svg>