<svg xmlns="http://www.w3.org/2000/svg" xmlns:xlink="http://www.w3.org/1999/xlink" width="115" height="104" viewBox="0 0 115 104">
  <defs>
    <clipPath id="clip-resources">
      <rect width="115" height="104"/>
    </clipPath>
  </defs>
  <g id="resources" clip-path="url(#clip-resources)">
    <rect width="115" height="104" fill="#fff"/>
    <g id="Group_4" data-name="Group 4" transform="translate(13.858 9.47)">
      <g id="Group_5" data-name="Group 5">
        <path id="Path_8" data-name="Path 8" d="M171.12,472.563H138.047a4.031,4.031,0,0,0-4.031,4.031h41.135A4.031,4.031,0,0,0,171.12,472.563Z" transform="translate(-111.443 -392.966)" fill="none" stroke="#093468" stroke-linecap="round" stroke-linejoin="round" stroke-width="2"/>
        <path id="Path_9" data-name="Path 9" d="M84.237,42.964a5.1,5.1,0,0,1,5.1,5.1V99.707a5.1,5.1,0,0,1-5.1,5.1H9.7a5.1,5.1,0,0,1-5.1-5.1V48.062a5.1,5.1,0,0,1,5.1-5.1H48.138" transform="translate(-3.829 -35.727)" fill="none" stroke="#093468" stroke-linecap="round" stroke-linejoin="round" stroke-width="2"/>
        <path id="Path_11" data-name="Path 11" d="M232.411,420.633H220.65l1.233-10.519h9.295Z" transform="translate(-183.485 -341.036)" fill="none" stroke="#093468" stroke-linecap="round" stroke-linejoin="round" stroke-width="2"/>
        <line id="Line_4" data-name="Line 4" x2="0.914" transform="translate(5.816 12.881)" fill="none" stroke="#093468" stroke-linecap="round" stroke-linejoin="round" stroke-width="2"/>
        <line id="Line_5" data-name="Line 5" x2="0.914" transform="translate(10.132 12.881)" fill="none" stroke="#093468" stroke-linecap="round" stroke-linejoin="round" stroke-width="2"/>
        <line id="Line_6" data-name="Line 6" x2="0.914" transform="translate(14.449 12.881)" fill="none" stroke="#093468" stroke-linecap="round" stroke-linejoin="round" stroke-width="2"/>
        <path id="Path_12" data-name="Path 12" d="M68.915,260.81a9,9,0,0,1-2.973,6.076c-3.354,2.922-9.318,2.11-12.379,5.293a7.939,7.939,0,0,0-1.894,5.673" transform="translate(-42.966 -216.88)" fill="none" stroke="#43a36a" stroke-linecap="round" stroke-linejoin="round" stroke-width="2"/>
        <path id="Path_13" data-name="Path 13" d="M218.9,260.81a9,9,0,0,0,2.973,6.076c3.354,2.922,9.318,2.11,12.379,5.293a7.939,7.939,0,0,1,1.894,5.673" transform="translate(-182.028 -216.88)" fill="none" stroke="#43a36a" stroke-linecap="round" stroke-linejoin="round" stroke-width="2"/>
        <path id="Path_14" data-name="Path 14" d="M152.859,298.589c-1.527,2.3-4.773,3.887-8.531,3.887s-7.029-1.6-8.548-3.913" transform="translate(-112.91 -248.274)" fill="none" stroke="#43a36a" stroke-linecap="round" stroke-linejoin="round" stroke-width="2"/>
        <path id="Path_15" data-name="Path 15" d="M116.835,114.664c0-7.868,5.349-11.569,11.724-11.569s11.361,3.7,11.361,11.569-4.986,16.923-11.361,16.923S116.835,122.531,116.835,114.664Z" transform="translate(-97.156 -85.73)" fill="none" stroke="#43a36a" stroke-linecap="round" stroke-linejoin="round" stroke-width="2"/>
        <path id="Path_16" data-name="Path 16" d="M139.95,144.924c-3.965-.844-6.033-3.31-7.649-5.439-3.279,4.33-10.754,6.132-15.43,5" transform="translate(-97.186 -115.991)" fill="none" stroke="#43a36a" stroke-linecap="round" stroke-linejoin="round" stroke-width="2"/>
        <path id="Path_17" data-name="Path 17" d="M307.823,4.605H284.708a3.684,3.684,0,0,0-3.576,3.784V21.662a3.684,3.684,0,0,0,3.576,3.784h.019l-.924,6.18,6.72-6.18h17.3a3.684,3.684,0,0,0,3.576-3.784V8.389A3.684,3.684,0,0,0,307.823,4.605Z" transform="translate(-233.779 -3.829)" fill="none" stroke="#43a36a" stroke-linecap="round" stroke-linejoin="round" stroke-width="2"/>
        <line id="Line_7" data-name="Line 7" x1="18.338" transform="translate(53.317 6.134)" fill="none" stroke="#43a36a" stroke-linecap="round" stroke-linejoin="round" stroke-width="2"/>
        <line id="Line_8" data-name="Line 8" x1="18.338" transform="translate(53.317 11.145)" fill="none" stroke="#43a36a" stroke-linecap="round" stroke-linejoin="round" stroke-width="2"/>
        <line id="Line_9" data-name="Line 9" x1="18.338" transform="translate(53.317 16.157)" fill="none" stroke="#43a36a" stroke-linecap="round" stroke-linejoin="round" stroke-width="2"/>
        <path id="Path_18" data-name="Path 18" d="M366.226,293.413a2.808,2.808,0,1,1-2.809-2.809A2.808,2.808,0,0,1,366.226,293.413Z" transform="translate(-299.869 -241.656)" fill="none" stroke="#093468" stroke-linecap="round" stroke-linejoin="round" stroke-width="2"/>
        <path id="Path_19" data-name="Path 19" d="M360.517,340.092H352v0a4.248,4.248,0,0,1,4.248-4.248h.02a4.248,4.248,0,0,1,4.248,4.248Z" transform="translate(-292.71 -279.274)" fill="none" stroke="#093468" stroke-linecap="round" stroke-linejoin="round" stroke-width="2"/>
        <path id="Path_20" data-name="Path 20" d="M442.3,293.413a2.808,2.808,0,1,1-2.809-2.809A2.808,2.808,0,0,1,442.3,293.413Z" transform="translate(-363.131 -241.656)" fill="none" stroke="#093468" stroke-linecap="round" stroke-linejoin="round" stroke-width="2"/>
        <path id="Path_21" data-name="Path 21" d="M436.594,340.092h-8.517v0a4.248,4.248,0,0,1,4.248-4.248h.02a4.248,4.248,0,0,1,4.248,4.248Z" transform="translate(-355.973 -279.274)" fill="none" stroke="#093468" stroke-linecap="round" stroke-linejoin="round" stroke-width="2"/>
        <path id="Path_10" data-name="Path 10" d="M84.237,370.092H9.7a5.1,5.1,0,0,1-5.1-5.1v-3.009h84.73v3.009A5.1,5.1,0,0,1,84.237,370.092Z" transform="translate(-3.829 -301.013)" fill="none" stroke="#093468" stroke-linecap="round" stroke-linejoin="round" stroke-width="2"/>
      </g>
    </g>
  </g>
</svg>
