<svg xmlns="http://www.w3.org/2000/svg" viewBox="0 0 50.63 50.84"><defs><style>.cls-1{fill:none;stroke:#f26544;stroke-miterlimit:10;stroke-width:1.79px;}</style></defs><g id="Layer_2" data-name="Layer 2"><g id="Layer_1-2" data-name="Layer 1"><circle class="cls-1" cx="39.25" cy="14.01" r="4.47"/><path class="cls-1" d="M18.38,22.87v8.82a11,11,0,0,0,.56,2.89l2.56,5.94"/><circle class="cls-1" cx="13.96" cy="3.77" r="2.87"/><path class="cls-1" d="M14.06,7.13H10.14s-3-.35-2.31,1.61L9.44,12"/><path class="cls-1" d="M9.44,12,7.83,8.74c-.69-2,2.31-1.61,2.31-1.61h8.07s3-.14,1.62,2.41L18.44,12"/><rect class="cls-1" x="7.02" y="11.97" width="13.73" height="3.58" rx="1.36"/><rect class="cls-1" x="7.02" y="19.58" width="13.73" height="3.58" rx="1.36"/><rect class="cls-1" x="4.65" y="15.55" width="18.46" height="3.58" rx="1.36"/><rect class="cls-1" x="0.9" y="45.23" width="25.98" height="4.71" rx="1.36"/><path class="cls-1" d="M9.27,22.87V31.4s0,2.08-.58,2.77L6.62,40.52"/><path class="cls-1" d="M9.49,40.53H4.94a1.79,1.79,0,0,0-1.79,1.79v1.13a1.79,1.79,0,0,0,1.79,1.78H22.83a1.79,1.79,0,0,0,1.79-1.78V42.32a1.79,1.79,0,0,0-1.79-1.79H12.29"/><path class="cls-1" d="M47.94,45.23h-2a1.79,1.79,0,0,0,1.79-1.78V42.32a1.79,1.79,0,0,0-1.79-1.79H32.11a1.79,1.79,0,0,0-1.79,1.79v1.13a1.79,1.79,0,0,0,1.79,1.78H30.06A1.79,1.79,0,0,0,28.27,47v1.13a1.79,1.79,0,0,0,1.79,1.79H47.94a1.79,1.79,0,0,0,1.79-1.79V47A1.79,1.79,0,0,0,47.94,45.23Z"/><rect class="cls-1" x="32.12" y="21.58" width="14.25" height="2.58" rx="0.98"/><path class="cls-1" d="M36.84,18.74h-2.5a1,1,0,0,0-1,1v.62a1,1,0,0,0,1,1h9.81a1,1,0,0,0,1-1v-.62a1,1,0,0,0-1-1H36.84"/><line class="cls-1" x1="35.51" y1="24.55" x2="33.79" y2="40.49"/><line class="cls-1" x1="42.69" y1="24.55" x2="44.41" y2="40.49"/><line class="cls-1" x1="31.71" y1="45.23" x2="42.48" y2="45.23"/></g></g></svg>