<svg xmlns="http://www.w3.org/2000/svg" viewBox="0 0 41.72 51.39"><defs><style>.cls-1{fill:#fff;stroke:#f26544;stroke-miterlimit:10;stroke-width:1.79px;}</style></defs><g id="Layer_2" data-name="Layer 2"><g id="Layer_1-2" data-name="Layer 1"><circle class="cls-1" cx="23.36" cy="5.01" r="4.11"/><path class="cls-1" d="M13.34,8.7,7.58,12.12l-3.71,5.8a2.53,2.53,0,0,0,0,2.09,2.05,2.05,0,0,0,2.33,1,3.29,3.29,0,0,0,1.3-1l3.25-4.34,2.38-1.46L9.92,31.06,2.53,39.53A3.72,3.72,0,0,0,1.82,42S3.16,44,4.12,44.12c0,0,1.76.5,3.44-1.63l6.74-8.17,1.37-4.89a1.67,1.67,0,0,1,1.09-1.25s1.83-.37,2.29.59l.42.83L18.84,35s-.46,1.59.17,2.13c0,0,.46,1.42,2.63,1.17l1.5-.54a2.61,2.61,0,0,0,1-1.63l1-6.55s.29-2.46-.75-3.42L20.68,23l.88-5.76,2.54,3.59,8.55-2.42s1.13,0,1.59-2c0,0,.5-2-1.88-2.17l-4.21.83-1.84.46-3.59-4.21-5.42-3A9.81,9.81,0,0,0,13.34,8.7Z"/><polyline class="cls-1" points="0.9 51.39 0.9 47.64 15 47.64 15 42.38 27.18 42.38 27.18 35.37 41.7 35.12"/></g></g></svg>