<?xml version="1.0" encoding="UTF-8"?><svg id="Layer_1" xmlns="http://www.w3.org/2000/svg" viewBox="0 0 50 50"><defs><style>.cls-1{opacity:.5;}.cls-2{opacity:.75;}.cls-3{fill:#4f9e99;}.cls-3,.cls-4{stroke-width:0px;}.cls-4{fill:#fff;}</style></defs><rect class="cls-3" width="50" height="50"/><g class="cls-1"><path class="cls-4" d="m46.85634,19.95061l-3.24208,3.24208c.23158.55377.3524,1.16795.3524,1.80731v.04531c0,2.31577-1.63111,4.28921-4.06267,4.28921-.72494,0-1.38443-.1762-1.94827-.48833l-3.05581,3.05581c1.37939.91624,3.07595,1.44987,4.95877,1.44987,4.95877,0,8.67407-3.74047,8.67407-8.35188v-.04531c.00504-1.88282-.60914-3.61462-1.67641-5.00408Z"/></g><g class="cls-2"><path class="cls-4" d="m43.61426,23.19269l3.24208-3.24208c-.34233-.44805-.735-.86086-1.16292-1.2334l-3.04574,3.04574c.41784.39771.74507.88603.96658,1.42974Z"/></g><g class="cls-2"><path class="cls-4" d="m36.67199,27.73865l-3.08602,3.08602c.39771.40274.83569.76521,1.31395,1.08237l3.05581-3.05581c-.50343-.27688-.93638-.65446-1.28374-1.11258Z"/></g><path class="cls-4" d="m1.2709,25.04531v-.04531c0-4.68188,3.57938-8.35188,8.44753-8.35188,3.28235,0,5.39172,1.37939,6.81642,3.32766l-3.35283,2.59266c-.92127-1.12265-1.97344-1.88282-3.51393-1.88282-2.25032,0-3.83109,1.92813-3.83109,4.26907v.04531c0,2.41142,1.5858,4.28921,3.83109,4.28921,1.67642,0,2.66314-.78031,3.62468-1.9533l3.35283,2.38625c-1.51532,2.08923-3.55924,3.62468-7.09331,3.62468-4.58623.01007-8.2814-3.50386-8.2814-8.30153Z"/><path class="cls-4" d="m17.6575,16.97032h12.85253v3.90157h-8.40222v2.72858h7.59674v3.69516h-7.59674v5.73908h-4.45031v-16.0644Z"/><g class="cls-2"><polygon class="cls-4" points="48.7291 17.16162 48.7291 18.78769 48.7291 20.41377 47.1584 18.86321 45.43164 17.16162 47.07785 17.16162 48.7291 17.16162"/></g><path class="cls-4" d="m35.77588,25v-.04531c0-2.31577,1.63111-4.28921,4.0828-4.28921,1.12264,0,2.07916.41785,2.78899,1.09747l3.04574-3.04574c-1.50525-1.28878-3.5089-2.06909-5.78439-2.06909-4.95877,0-8.67407,3.74047-8.67407,8.35188v.04531c0,2.25536.87597,4.28921,2.35101,5.77936l3.08602-3.08602c-.56887-.75514-.8961-1.71669-.8961-2.73865Z"/></svg>