<?xml version="1.0" encoding="iso-8859-1"?>
<!-- Generator: Adobe Illustrator 19.0.0, SVG Export Plug-In . SVG Version: 6.00 Build 0)  -->
<svg xmlns="http://www.w3.org/2000/svg" xmlns:xlink="http://www.w3.org/1999/xlink" version="1.1" id="Layer_1" x="0px" y="0px" viewBox="0 0 512.001 512.001" style="enable-background:new 0 0 512.001 512.001;" xml:space="preserve">
<path style="fill:#FFDC5E;" d="M459.238,239.172c-3.649-4.074-4.493-9.941-2.139-14.879l26.755-56.129  c3.629-7.614-0.501-16.659-8.632-18.902l-59.94-16.536c-5.272-1.454-9.154-5.934-9.843-11.36l-7.838-61.684  c-1.063-8.368-9.428-13.744-17.481-11.235l-59.366,18.495c-5.221,1.627-10.909-0.044-14.422-4.235l-39.942-47.655  c-5.418-6.465-15.361-6.465-20.779,0l-11.337,13.526l-17.943,21.409L205.668,62.71c-3.513,4.191-9.201,5.861-14.422,4.235  L131.88,48.45c-8.053-2.509-16.418,2.866-17.481,11.235l-7.838,61.684c-0.689,5.425-4.571,9.906-9.843,11.36l-59.94,16.536  c-8.131,2.243-12.261,11.288-8.632,18.902l26.755,56.129c2.354,4.937,1.509,10.804-2.139,14.879l-41.485,46.317  c-5.628,6.283-4.212,16.125,2.957,20.568l52.854,32.753c4.649,2.881,7.111,8.273,6.244,13.673l-9.859,61.393  c-1.337,8.328,5.174,15.843,13.608,15.704l30.89-1.04l31.281,0.02c5.468-0.09,10.455,3.115,12.645,8.126l24.898,56.976  c3.377,7.729,12.918,10.531,19.938,5.854l51.75-34.471c4.552-3.032,10.48-3.032,15.031,0l51.75,34.471  c7.02,4.676,16.561,1.875,19.938-5.854l24.898-56.976c2.19-5.012,7.177-8.216,12.645-8.126l62.172,1.02  c8.434,0.139,14.945-7.376,13.608-15.704l-9.859-61.393c-0.867-5.399,1.596-10.792,6.244-13.673l52.854-32.753  c7.169-4.444,8.585-14.286,2.957-20.568l-20.45-22.833L459.238,239.172z"/>
<g style="opacity:0.04;">
	<path style="fill:#2D2128;" d="M501.415,285.489l-20.45-22.833l-21.035-23.484c-3.648-4.074-4.493-9.941-2.139-14.879   l26.755-56.129c3.629-7.614-0.501-16.659-8.632-18.902l-31.698-8.744C348.463,306.028,178.091,365.535,68.05,389.693l-3.884,24.184   c-1.337,8.328,5.174,15.843,13.608,15.704l30.89-1.04l31.281,0.02c5.468-0.09,10.455,3.115,12.645,8.126l24.898,56.976   c3.377,7.729,12.918,10.531,19.938,5.854l51.749-34.471c4.552-3.032,10.48-3.032,15.031,0l51.75,34.471   c7.02,4.676,16.56,1.875,19.938-5.854l24.898-56.976c2.19-5.012,7.177-8.216,12.645-8.126l62.172,1.02   c8.434,0.139,14.945-7.376,13.608-15.704l-9.859-61.393c-0.867-5.399,1.596-10.792,6.244-13.673l52.854-32.753   C505.627,301.614,507.043,291.772,501.415,285.489z"/>
</g>
<path d="M107.978,420.723c-0.09,0-0.179,0.001-0.268,0.004l-30.81,1.037c-0.017,0-0.032,0-0.049,0c-2.27,0-3.684-1.236-4.329-1.98  c-0.655-0.756-1.698-2.367-1.328-4.669l9.858-61.392c1.371-8.54-2.493-17.002-9.845-21.558l-52.853-32.753  c-1.98-1.228-2.515-3.072-2.658-4.061s-0.149-2.91,1.406-4.646l41.484-46.317c5.772-6.443,7.096-15.651,3.374-23.458L35.205,164.8  c-1.004-2.103-0.457-3.943-0.041-4.853c0.415-0.91,1.449-2.529,3.694-3.149L98.8,140.262c8.337-2.3,14.428-9.331,15.519-17.911  l7.839-61.684c0.293-2.311,1.749-3.563,2.589-4.104c0.841-0.541,2.585-1.345,4.81-0.651l59.366,18.496  c8.251,2.572,17.182-0.047,22.738-6.677l10.662-12.722c2.774-3.309,2.339-8.24-0.97-11.014c-3.307-2.773-8.239-2.339-11.013,0.969  l-10.662,12.723c-1.493,1.78-3.887,2.483-6.105,1.793l-59.366-18.496c-6.056-1.887-12.581-1-17.914,2.427  c-5.333,3.427-8.849,8.999-9.648,15.287l-7.839,61.684c-0.292,2.304-1.928,4.191-4.165,4.808l-59.942,16.536  c-6.11,1.687-11.125,5.96-13.758,11.727c-2.633,5.766-2.579,12.355,0.149,18.076l26.754,56.129c1,2.096,0.644,4.568-0.906,6.298  L5.454,280.274c-4.229,4.722-6.137,11.028-5.234,17.302c0.902,6.274,4.509,11.787,9.897,15.127l52.854,32.753  c1.974,1.224,3.011,3.495,2.642,5.788l-9.858,61.392c-1.005,6.258,0.799,12.596,4.95,17.387c4.074,4.701,9.942,7.378,16.15,7.378  c0.117,0,0.237-0.001,0.354-0.003c0.045-0.001,0.09-0.002,0.136-0.003l30.89-1.04c4.315-0.145,7.695-3.761,7.55-8.076  C115.644,424.052,112.174,420.723,107.978,420.723z"/>
<path d="M506.546,280.273l-20.45-22.833c-2.88-3.215-7.822-3.488-11.04-0.608c-3.216,2.881-3.489,7.823-0.608,11.04l20.45,22.833  c1.554,1.736,1.548,3.656,1.406,4.646s-0.676,2.834-2.657,4.062l-52.854,32.753c-7.353,4.556-11.217,13.018-9.845,21.557  l9.859,61.392c0.369,2.302-0.674,3.913-1.329,4.67c-0.655,0.756-2.114,2.014-4.431,1.979l-62.172-1.02  c-0.119-0.002-0.238-0.003-0.357-0.003c-8.505,0-16.165,5-19.581,12.816l-24.898,56.976c-0.934,2.136-2.683,2.928-3.643,3.209  c-0.959,0.281-2.859,0.561-4.798-0.731l-51.75-34.471c-7.198-4.796-16.5-4.796-23.699,0l-51.749,34.471  c-1.938,1.293-3.839,1.012-4.799,0.731c-0.96-0.281-2.709-1.073-3.642-3.208l-24.898-56.976  c-3.415-7.817-11.074-12.817-19.581-12.817c-0.118,0-0.238,0.001-0.356,0.003c-4.317,0.071-7.758,3.627-7.688,7.945  c0.07,4.274,3.555,7.69,7.815,7.69c0.074,0,0.149-0.001,0.226-0.002c2.283,0,4.34,1.343,5.258,3.442l24.899,56.976  c2.538,5.809,7.482,10.164,13.563,11.95c1.986,0.583,4.017,0.869,6.036,0.869c4.166,0,8.282-1.223,11.836-3.589l51.749-34.472  c1.933-1.286,4.43-1.287,6.363,0l51.75,34.471c5.274,3.514,11.788,4.505,17.87,2.721c6.082-1.786,11.027-6.141,13.566-11.951  l24.898-56.976c0.931-2.128,3.062-3.448,5.355-3.441l62.172,1.02c0.119,0.002,0.237,0.003,0.354,0.003  c6.206,0,12.076-2.676,16.149-7.377c4.151-4.791,5.956-11.127,4.951-17.388l-9.859-61.393c-0.369-2.293,0.669-4.564,2.642-5.788  l52.855-32.753c5.388-3.34,8.996-8.854,9.897-15.128C512.683,291.3,510.774,284.995,506.546,280.273z"/>
<path d="M229.252,34.572c3.307,2.773,8.239,2.34,11.013-0.97l11.336-13.525c1.498-1.787,3.398-2.053,4.399-2.053  s2.901,0.267,4.399,2.053l39.941,47.655c5.556,6.628,14.484,9.247,22.739,6.676l59.365-18.496c2.222-0.692,3.969,0.11,4.81,0.651  s2.296,1.793,2.589,4.105l7.839,61.683c1.09,8.581,7.182,15.611,15.521,17.912l59.939,16.536c2.246,0.62,3.279,2.239,3.695,3.149  c0.415,0.91,0.963,2.75-0.041,4.853l-26.755,56.13c-3.72,7.808-2.396,17.016,3.374,23.457c1.544,1.724,3.68,2.602,5.826,2.602  c1.856,0,3.72-0.658,5.213-1.995c3.217-2.881,3.489-7.823,0.607-11.04c-1.548-1.729-1.904-4.202-0.905-6.298l26.754-56.128  c2.728-5.722,2.783-12.31,0.15-18.077c-2.633-5.766-7.648-10.04-13.759-11.727l-59.94-16.536c-2.238-0.617-3.874-2.505-4.166-4.809  l-7.839-61.683c-0.799-6.289-4.315-11.86-9.648-15.287c-5.332-3.426-11.862-4.313-17.914-2.427L318.428,59.48  c-2.219,0.691-4.615-0.014-6.106-1.793l-39.941-47.655c-4.071-4.858-10.043-7.645-16.382-7.645c-6.339,0-12.31,2.786-16.382,7.645  l-11.336,13.526C225.508,26.868,225.943,31.798,229.252,34.572z"/>
<path d="M152.292,230.945c13.471,0,24.431,10.959,24.431,24.431v35.814c0,4.317,3.499,7.818,7.818,7.818  c4.318,0,7.818-3.5,7.818-7.818v-35.814c0-22.092-17.973-40.066-40.066-40.066c-9.19,0-17.663,3.119-24.431,8.342v-0.524  c0-4.317-3.499-7.818-7.818-7.818s-7.818,3.5-7.818,7.818v68.063c0,4.317,3.499,7.818,7.818,7.818s7.818-3.5,7.818-7.818v-35.814  C127.862,241.905,138.82,230.945,152.292,230.945z"/>
<path d="M227.108,255.893c0,4.317,3.499,7.818,7.818,7.818h47.698c4.319,0,7.818-3.5,7.818-7.818  c0-24.724-20.114-44.838-44.838-44.838c-24.725,0-44.839,20.114-44.839,44.838s20.114,44.838,44.839,44.838h25.914  c4.318,0,7.818-3.5,7.818-7.818c0-4.317-3.499-7.818-7.818-7.818h-25.914c-16.102,0-29.204-13.1-29.204-29.203  s13.1-29.203,29.204-29.203c13.396,0,24.713,9.066,28.14,21.385h-38.817C230.608,248.076,227.108,251.576,227.108,255.893z"/>
<path d="M399.172,219.145c-4.082-1.416-8.533,0.746-9.947,4.824l-15.798,45.556l-13.878-32.453c-1.23-2.878-4.059-4.744-7.188-4.744  s-5.958,1.867-7.188,4.744l-13.878,32.453l-15.798-45.556c-1.414-4.079-5.864-6.24-9.947-4.824c-4.08,1.414-6.24,5.868-4.825,9.947  l22.423,64.659c1.058,3.051,3.884,5.138,7.111,5.251c3.225,0.108,6.193-1.769,7.462-4.74l14.64-34.234L367,294.263  c1.233,2.885,4.066,4.744,7.186,4.744c0.093,0,0.185-0.001,0.277-0.004c3.228-0.114,6.054-2.2,7.111-5.251l22.423-64.659  C405.411,225.013,403.252,220.559,399.172,219.145z"/>
<g>
</g>
<g>
</g>
<g>
</g>
<g>
</g>
<g>
</g>
<g>
</g>
<g>
</g>
<g>
</g>
<g>
</g>
<g>
</g>
<g>
</g>
<g>
</g>
<g>
</g>
<g>
</g>
<g>
</g>
</svg>
