<svg xmlns="http://www.w3.org/2000/svg" viewBox="0 0 42.71 50.93"><defs><style>.cls-1{fill:#f26544;}.cls-2,.cls-3,.cls-5{fill:none;}.cls-2,.cls-3,.cls-4,.cls-5{stroke:#f26544;stroke-miterlimit:10;}.cls-2,.cls-3{stroke-linecap:round;}.cls-2{stroke-width:1.65px;}.cls-3,.cls-4,.cls-5{stroke-width:1.4px;}.cls-4{fill:#fff;}</style></defs><g id="Layer_2" data-name="Layer 2"><g id="Layer_1-2" data-name="Layer 1"><circle class="cls-1" cx="41.21" cy="23.58" r="1.5"/><line class="cls-2" x1="5.9" y1="37.78" x2="13.1" y2="37.78"/><line class="cls-2" x1="17.74" y1="37.78" x2="36.01" y2="37.78"/><line class="cls-2" x1="36.01" y1="42.78" x2="28.81" y2="42.78"/><line class="cls-2" x1="24.18" y1="42.78" x2="5.9" y2="42.78"/><path class="cls-3" d="M41.21,30.92V46.76a3.47,3.47,0,0,1-3.47,3.47H4.17A3.47,3.47,0,0,1,.7,46.76V4.17A3.47,3.47,0,0,1,4.17.7H37.74a3.47,3.47,0,0,1,3.47,3.47V16.53"/><path class="cls-4" d="M21,31.83H6.7A.78.78,0,0,1,6,30.65l7.13-12.12L20.26,6.41a.81.81,0,0,1,1.39,0l7.13,12.12L35.9,30.65a.78.78,0,0,1-.69,1.18Z"/><polyline class="cls-4" points="21.56 12.55 17.74 20.67 23.01 18.66 19.9 28.36"/><polyline class="cls-5" points="17.46 23.96 19.95 28.25 24.55 25.25"/></g></g></svg>