<svg xmlns="http://www.w3.org/2000/svg" viewBox="0 0 43.61 53.9"><defs><style>.cls-1,.cls-3{fill:#fff;}.cls-1,.cls-3,.cls-4,.cls-5,.cls-6{stroke:#f26544;stroke-miterlimit:10;}.cls-1,.cls-5{stroke-width:1.4px;}.cls-2{fill:#f26544;}.cls-3,.cls-4{stroke-width:1.35px;}.cls-4,.cls-5,.cls-6{fill:none;}.cls-5,.cls-6{stroke-linecap:round;}.cls-6{stroke-width:1.65px;}</style></defs><g id="Layer_2" data-name="Layer 2"><g id="Layer_1-2" data-name="Layer 1"><path class="cls-1" d="M10.83,18.54H29.52a3.65,3.65,0,0,1,3.65,3.65v9.9a0,0,0,0,1,0,0h-26a0,0,0,0,1,0,0v-9.9A3.65,3.65,0,0,1,10.83,18.54Z"/><path class="cls-2" d="M21.78,24.43a9.29,9.29,0,0,1,.63-3h2.15a10.49,10.49,0,0,0-.64,1.79,6.7,6.7,0,0,0-.25,1.69,2.22,2.22,0,0,0,.13.89.46.46,0,0,0,.44.28.44.44,0,0,0,.36-.21,3.35,3.35,0,0,0,.34-.67c.12-.31.27-.74.45-1.27a6.05,6.05,0,0,1,.68-1.46,2.2,2.2,0,0,1,2-1.05,2,2,0,0,1,1.67.75,4.26,4.26,0,0,1,.74,2.25h.88V25.9H30.5a8.87,8.87,0,0,1-.63,2.84L28,27.9a7.26,7.26,0,0,0,.61-2.67,1.84,1.84,0,0,0-.13-.8.4.4,0,0,0-.37-.23.41.41,0,0,0-.35.17,2.32,2.32,0,0,0-.31.57,12,12,0,0,0-.4,1.15A5.66,5.66,0,0,1,26,28.21a2.06,2.06,0,0,1-1.57.65,2.24,2.24,0,0,1-1.76-.76,3.86,3.86,0,0,1-.84-2.2H20.57V24.43Z"/><path class="cls-3" d="M6.17.88l-3-.21a2.41,2.41,0,0,0-2.45,2v7.35S.58,12.55,3.42,12c0,0,3.72.5,4.33,3l5.09,7.2s3.26,3.28,3.92-1.3l-1.94-5.09s-.45-3.15,3.78-2.5a6.72,6.72,0,0,1,3.3,2.72s.34,1.56.47,2.28h3.86s-.33-4.47-1.68-6l12.5,5.94s1.78.92,2.42.21c0,0,3.39-2.69-1.8-4.58C37.67,13.91,13.09.67,6.17.88Z"/><path class="cls-1" d="M21.85,5.66l11,2.12s4.33.53,5,3.23a3.58,3.58,0,0,1-.21,2.9Z"/><path class="cls-4" d="M34.07,26.93h3s1.72,0,1.47,2.52v2.64l-32.35.1S3,31.48,2.34,30.8a1.57,1.57,0,0,1-.67-1.89,5.52,5.52,0,0,1,2-1.51,11.59,11.59,0,0,1,3.48-.47"/><path class="cls-5" d="M40.56,33.83V50.11a3.07,3.07,0,0,1-3.51,3.07H7.18s-5.66-.72-5.58-3.75V28.91"/><line class="cls-6" x1="5.27" y1="35.72" x2="5.27" y2="39.18"/><line class="cls-6" x1="5.27" y1="42.35" x2="5.27" y2="49.18"/><path class="cls-1" d="M33,36.4h9.88a0,0,0,0,1,0,0V48.3a0,0,0,0,1,0,0H33a3.46,3.46,0,0,1-3.46-3.46v-5A3.46,3.46,0,0,1,33,36.4Z"/><circle class="cls-1" cx="36.85" cy="42.31" r="2.78"/></g></g></svg>