<svg xmlns="http://www.w3.org/2000/svg" viewBox="0 0 51.23 48.97"><defs><style>.cls-1{fill:#fff;}.cls-1,.cls-2{stroke:#f26544;stroke-miterlimit:10;stroke-width:1.79px;}.cls-2{fill:none;}.cls-3{fill:#f26544;}</style></defs><g id="Layer_2" data-name="Layer 2"><g id="Layer_1-2" data-name="Layer 1"><rect class="cls-1" x="15.42" y="0.9" width="34.91" height="34.45"/><rect class="cls-1" x="7.33" y="7.71" width="34.91" height="34.45"/><rect class="cls-1" x="0.9" y="13.62" width="34.91" height="34.45"/><rect class="cls-2" x="5.92" y="18.74" width="6.28" height="6.28" rx="1.45"/><rect class="cls-2" x="23.84" y="36.66" width="6.28" height="6.28"/><rect class="cls-2" x="5.92" y="36.63" width="6.28" height="6.28" rx="2.62"/><path class="cls-3" d="M17.38,20l1.13,1.31H14.69v2h3.82l-1.16,1.12,1.16,1.38,3-3.52-2.95-3.5A13,13,0,0,0,17.38,20Z"/><path class="cls-3" d="M17.38,37.47l1.13,1.31H14.69v2h3.82L17.35,41.9l1.16,1.38,3-3.52-2.95-3.5A13,13,0,0,0,17.38,37.47Z"/><path class="cls-2" d="M26.56,18.89l-3.09,4.78a.54.54,0,0,0,.44.82h6.18a.54.54,0,0,0,.45-.82l-3.09-4.78A.53.53,0,0,0,26.56,18.89Z"/><path class="cls-3" d="M26.49,26.52a2.15,2.15,0,0,1-2.15,2.15H12.16a3.59,3.59,0,0,0-3.59,3.59v.42L6.93,31l-1,1,2.86,2.87h0a.63.63,0,0,0,.23.16.63.63,0,0,0,.27.06.75.75,0,0,0,.51-.21l2.86-2.87-1-1L10,32.68v-.42a2.15,2.15,0,0,1,2.15-2.15H24.34a3.59,3.59,0,0,0,3.59-3.59Z"/></g></g></svg>