<svg xmlns="http://www.w3.org/2000/svg" viewBox="0 0 58.98 58.84"><defs><style>.cls-1,.cls-3{fill:none;stroke:#f26544;stroke-miterlimit:10;}.cls-1{stroke-width:1.79px;}.cls-2{fill:#f26544;}</style></defs><g id="Layer_2" data-name="Layer 2"><g id="Layer_1-2" data-name="Layer 1"><polyline class="cls-1" points="6.26 8.99 1.8 8.99 1.8 32.66 6.26 32.66"/><polyline class="cls-1" points="49.8 8.99 53.67 8.99 53.67 17.5"/><path class="cls-1" d="M17.64,4.37S17.15.81,20.35.9h24.1s3.11-.18,2.76,3.47V16.19s.4,3.07-3.47,2.85H33.11a.79.79,0,0,0-.59.26l-4.07,4.48a.8.8,0,0,1-1.39-.54v-4a.79.79,0,0,0-.79-.79H20.13s-2.5.48-2.52-2.67Z"/><rect class="cls-1" x="30.42" y="29.11" width="24.21" height="15.68" rx="3.25"/><rect class="cls-2" x="9.16" y="8.03" width="1.93" height="1.93"/><rect class="cls-2" x="13.03" y="8.03" width="1.93" height="1.93"/><rect class="cls-2" x="23.68" y="5.12" width="17.41" height="1.93"/><rect class="cls-2" x="23.68" y="8.99" width="17.41" height="1.93"/><rect class="cls-2" x="23.68" y="12.86" width="17.41" height="1.93"/><rect class="cls-3" x="39.77" y="37.05" width="4.47" height="12.58" rx="2.23"/><rect class="cls-2" x="37.12" y="48.97" width="9.78" height="2.59"/><rect class="cls-1" x="3.84" y="53.06" width="51.87" height="4.88"/><rect class="cls-2" y="52.53" width="58.98" height="1.93"/><path class="cls-1" d="M21.21,40.75H10.72a4,4,0,0,0-4,4v6.59h3.43V44.79H11v6.57H21V44.79h.84v6.57h3.37V44.77A4,4,0,0,0,21.21,40.75Z"/><rect class="cls-2" x="13.05" y="38.25" width="1.86" height="5.97"/><rect class="cls-2" x="16.9" y="38.25" width="1.86" height="5.97"/><ellipse class="cls-1" cx="15.96" cy="33.18" rx="4.85" ry="5.85"/></g></g></svg>