<?xml version="1.0" encoding="utf-8"?>
<!-- Generator: Adobe Illustrator 27.8.1, SVG Export Plug-In . SVG Version: 6.00 Build 0)  -->
<svg version="1.1" id="Layer_1" xmlns="http://www.w3.org/2000/svg" xmlns:xlink="http://www.w3.org/1999/xlink" x="0px" y="0px"
	 viewBox="0 0 1555 363" style="enable-background:new 0 0 1555 363;" xml:space="preserve">
<style type="text/css">
	.st0{fill:#2A4B45;}
	.st1{fill:#28A0CB;}
	.st2{opacity:0.5;}
	.st3{fill:#4F9E99;}
	.st4{opacity:0.75;}
</style>
<g>
	<g>
		<g>
			<path class="st0" d="M1031.7,47.3v-0.1c0-14.2,10.9-25.4,25.6-25.4c10,0,16.4,4.2,20.7,10.1l-10.2,7.9c-2.8-3.4-6-5.7-10.7-5.7
				c-6.8,0-11.6,5.9-11.6,13v0.1c0,7.3,4.8,13,11.6,13c5.1,0,8.1-2.4,11-5.9l10.2,7.2c-4.6,6.3-10.8,11-21.5,11
				C1042.9,72.6,1031.7,61.9,1031.7,47.3z"/>
		</g>
		<g>
			<path class="st0" d="M1096.8,22.8h13.5v18.3h17.4V22.8h13.5v48.8h-13.5V53.1h-17.4v18.5h-13.5V22.8z"/>
		</g>
		<g>
			<path class="st0" d="M1162.7,22.8h13.5v48.8h-13.5V22.8z"/>
		</g>
		<g>
			<path class="st0" d="M1197.7,22.8h39.2v11.4h-25.9v7.5h23.4v10.7h-23.4v7.7h26.2v11.5h-39.6V22.8z"/>
		</g>
		<g>
			<path class="st0" d="M1256.8,22.8h39v11.8h-25.5V43h23.1v11.2h-23.1v17.4h-13.5V22.8z"/>
		</g>
		<g>
			<path class="st0" d="M1033.3,106.4h39v11.8h-25.5v8.3h23.1v11.2h-23.1v17.4h-13.5V106.4z"/>
		</g>
		<g>
			<path class="st0" d="M1091.4,106.4h13.5v48.8h-13.5V106.4z"/>
		</g>
		<g>
			<path class="st0" d="M1126.4,106.4h12.6l20.1,25.8v-25.8h13.4v48.8h-11.8l-20.9-26.8v26.8h-13.4V106.4z"/>
		</g>
		<g>
			<path class="st0" d="M1210.5,106.1h13l20.8,49.1h-14.5l-3.5-8.8h-18.9l-3.5,8.8h-14.1L1210.5,106.1z M1222.4,135.9l-5.4-13.8
				l-5.5,13.8H1222.4z"/>
		</g>
		<g>
			<path class="st0" d="M1261.6,106.4h12.6l20.1,25.8v-25.8h13.4v48.8h-11.8l-20.9-26.8v26.8h-13.4V106.4z"/>
		</g>
		<g>
			<path class="st0" d="M1327.2,131v-0.1c0-14.2,10.9-25.4,25.7-25.4c10,0,16.4,4.2,20.7,10.1l-10.2,7.9c-2.8-3.4-6-5.7-10.7-5.7
				c-6.8,0-11.6,5.9-11.6,13v0.1c0,7.3,4.8,13,11.6,13c5.1,0,8.1-2.4,11-5.9l10.2,7.3c-4.6,6.3-10.8,11-21.5,11
				C1338.5,156.2,1327.2,145.5,1327.2,131z"/>
		</g>
		<g>
			<path class="st0" d="M1392.7,106.4h13.5v48.8h-13.5V106.4z"/>
		</g>
		<g>
			<path class="st0" d="M1444.5,106.1h13l20.8,49.1h-14.5l-3.5-8.8h-18.9l-3.5,8.8h-14.1L1444.5,106.1z M1456.4,135.9l-5.4-13.8
				l-5.5,13.8H1456.4z"/>
		</g>
		<g>
			<path class="st0" d="M1495.6,106.4h13.5v36.9h23.6v11.8h-37.2V106.4z"/>
		</g>
		<g>
			<path class="st0" d="M1027.5,214.6v-0.1c0-14,11.3-25.4,26.3-25.4s26.2,11.2,26.2,25.2v0.1c0,14-11.3,25.4-26.3,25.4
				C1038.7,239.8,1027.5,228.6,1027.5,214.6z M1066.2,214.6v-0.1c0-7.1-5-13.2-12.5-13.2c-7.5,0-12.4,6-12.4,13v0.1
				c0,7,5.1,13.2,12.5,13.2C1061.2,227.6,1066.2,221.6,1066.2,214.6z"/>
		</g>
		<g>
			<path class="st0" d="M1099.6,190.1h39v11.8h-25.5v8.3h23.1v11.2h-23.1v17.4h-13.5V190.1z"/>
		</g>
		<g>
			<path class="st0" d="M1157.3,190.1h39v11.8h-25.5v8.3h23.1v11.2h-23.1v17.4h-13.5V190.1z"/>
		</g>
		<g>
			<path class="st0" d="M1215.5,190.1h13.5v48.8h-13.5V190.1z"/>
		</g>
		<g>
			<path class="st0" d="M1248.8,214.6v-0.1c0-14.2,10.9-25.4,25.7-25.4c10,0,16.4,4.2,20.7,10.1l-10.2,7.9c-2.8-3.4-6-5.7-10.7-5.7
				c-6.8,0-11.6,5.9-11.6,13v0.1c0,7.3,4.8,13,11.6,13c5.1,0,8.1-2.4,11-5.9l10.2,7.2c-4.6,6.3-10.8,11-21.5,11
				C1260.1,239.8,1248.8,229.2,1248.8,214.6z"/>
		</g>
		<g>
			<path class="st0" d="M1313.9,190.1h39.2v11.4h-25.9v7.5h23.4v10.7h-23.4v7.7h26.2v11.5h-39.6V190.1z"/>
		</g>
		<g>
			<path class="st0" d="M1373,190.1h23.1c7.5,0,12.6,1.9,15.9,5.2c2.9,2.9,4.3,6.6,4.3,11.4v0.1c0,7.5-4,12.5-10,15.1l11.6,17h-15.5
				l-9.8-14.8h-6v14.8H1373V190.1z M1395.5,213.5c4.5,0,7.2-2.2,7.2-5.8v-0.1c0-3.9-2.9-5.9-7.3-5.9h-8.9v11.8H1395.5z"/>
		</g>
		<g>
			<path class="st0" d="M1432,231.6l7.5-9c4.9,3.8,10.2,5.9,15.8,5.9c3.7,0,5.6-1.3,5.6-3.3V225c0-2.1-1.6-3.1-8.3-4.7
				c-10.4-2.4-18.4-5.3-18.4-15.3v-0.1c0-9.1,7.2-15.6,18.9-15.6c8.3,0,14.8,2.2,20.1,6.5l-6.8,9.5c-4.5-3.2-9.3-4.8-13.7-4.8
				c-3.3,0-4.9,1.3-4.9,3.1v0.1c0,2.2,1.7,3.2,8.5,4.7c11.2,2.4,18.1,6.1,18.1,15.2v0.1c0,10-7.9,15.9-19.7,15.9
				C1446.2,239.7,1438,237,1432,231.6z"/>
		</g>
		<g>
			<path class="st0" d="M1029.5,329v-0.1c0-12.1,9.1-22.1,21.6-22.1c7.8,0,12.4,2.7,16.7,6.8l-3.3,3.5c-3.6-3.4-7.6-5.9-13.5-5.9
				c-9.5,0-16.6,7.7-16.6,17.5v0.1c0,9.9,7.2,17.7,16.6,17.7c5.9,0,9.7-2.3,13.8-6.2l3.2,3.1c-4.5,4.5-9.4,7.5-17.1,7.5
				C1038.6,351,1029.5,341.3,1029.5,329z"/>
		</g>
		<g>
			<path class="st0" d="M1086.8,329v-0.1c0-11.8,8.9-22.1,21.9-22.1c13,0,21.8,10.2,21.8,22v0.1c0,11.8-8.9,22.1-21.9,22.1
				C1095.5,351,1086.8,340.8,1086.8,329z M1125.4,329v-0.1c0-9.7-7.1-17.7-16.9-17.7c-9.8,0-16.8,7.8-16.8,17.5v0.1
				c0,9.7,7.1,17.7,16.9,17.7C1118.5,346.5,1125.4,338.7,1125.4,329z"/>
		</g>
		<g>
			<path class="st0" d="M1153.4,332.4v-24.9h4.8V332c0,9.2,5,14.4,13.1,14.4c7.9,0,12.9-4.8,12.9-14.1v-24.9h4.8V332
				c0,12.5-7.2,19-17.9,19C1160.6,350.9,1153.4,344.5,1153.4,332.4z"/>
		</g>
		<g>
			<path class="st0" d="M1213.9,307.5h4.5l27,34.3v-34.3h4.7v42.8h-3.9l-27.6-35.1v35.1h-4.7V307.5z"/>
		</g>
		<g>
			<path class="st0" d="M1273.8,329v-0.1c0-12.1,9-22.1,21.6-22.1c7.8,0,12.4,2.7,16.7,6.8l-3.3,3.5c-3.6-3.4-7.6-5.9-13.5-5.9
				c-9.5,0-16.6,7.7-16.6,17.5v0.1c0,9.9,7.2,17.7,16.6,17.7c5.9,0,9.7-2.3,13.8-6.2l3.2,3.1c-4.5,4.5-9.4,7.5-17.1,7.5
				C1282.9,351,1273.8,341.3,1273.8,329z"/>
		</g>
		<g>
			<path class="st0" d="M1334.7,307.5h4.8v42.8h-4.8V307.5z"/>
		</g>
		<g>
			<path class="st0" d="M1365.5,307.5h4.8v38.3h24.1v4.5h-28.9V307.5z"/>
		</g>
	</g>
	<g>
		<rect x="1031.4" y="273.8" class="st1" width="500.1" height="1.6"/>
	</g>
	<g class="st2">
		<g>
			<path class="st3" d="M931.1,80.4l-64.4,64.4c4.6,11,7,23.2,7,35.9v0.9c0,46-32.4,85.2-80.7,85.2c-14.4,0-27.5-3.5-38.7-9.7
				l-60.7,60.7c27.4,18.2,61.1,28.8,98.5,28.8c98.5,0,172.3-74.3,172.3-165.9v-0.9C964.5,142.4,952.3,108,931.1,80.4z"/>
		</g>
	</g>
	<g class="st4">
		<g>
			<path class="st3" d="M866.7,144.8l64.4-64.4c-6.8-8.9-14.6-17.1-23.1-24.5l-60.5,60.5C855.8,124.3,862.3,134,866.7,144.8z"/>
		</g>
	</g>
	<g class="st4">
		<g>
			<path class="st3" d="M728.8,235.1l-61.3,61.3c7.9,8,16.6,15.2,26.1,21.5l60.7-60.7C744.3,251.7,735.7,244.2,728.8,235.1z"/>
		</g>
	</g>
	<g>
		<g>
			<path class="st3" d="M25.6,181.6v-0.9c0-93,71.1-165.9,167.8-165.9c65.2,0,107.1,27.4,135.4,66.1l-66.6,51.5
				C243.9,110.1,223,95,192.4,95c-44.7,0-76.1,38.3-76.1,84.8v0.9c0,47.9,31.5,85.2,76.1,85.2c33.3,0,52.9-15.5,72-38.8l66.6,47.4
				c-30.1,41.5-70.7,72-140.9,72C99,346.7,25.6,276.9,25.6,181.6z"/>
		</g>
	</g>
	<g>
		<g>
			<path class="st3" d="M351.1,21.2h255.3v77.5H439.5v54.2h150.9v73.4H439.5v114h-88.4V21.2z"/>
		</g>
	</g>
	<g class="st4">
		<g>
			<polygon class="st3" points="968.3,25 968.3,57.3 968.3,89.6 937.1,58.8 902.8,25 935.5,25 			"/>
		</g>
	</g>
	<g>
		<path class="st3" d="M711,180.7v-0.9c0-46,32.4-85.2,81.1-85.2c22.3,0,41.3,8.3,55.4,21.8L908,55.9
			c-29.9-25.6-69.7-41.1-114.9-41.1c-98.5,0-172.3,74.3-172.3,165.9v0.9c0,44.8,17.4,85.2,46.7,114.8l61.3-61.3
			C717.5,220.1,711,201,711,180.7z"/>
	</g>
</g>
</svg>
