<?xml version="1.0" encoding="utf-8"?>
<!-- Generator: Adobe Illustrator 28.2.0, SVG Export Plug-In . SVG Version: 6.00 Build 0)  -->
<svg version="1.1" id="Layer_1" xmlns="http://www.w3.org/2000/svg" xmlns:xlink="http://www.w3.org/1999/xlink" x="0px" y="0px"
	 viewBox="0 0 500 191.9" style="enable-background:new 0 0 500 191.9;" xml:space="preserve">
<style type="text/css">
	.st0{fill:#43A36A;}
	.st1{fill:#093468;}
</style>
<path class="st0" d="M341.5,78.8h-20.6c-20.2-12.7-44.7-20.2-71.1-20.2c-21.3,0-41.4,4.9-59,13.4c20.1-12.4,44.3-19.7,70.4-19.7
	C291.8,52.4,319.8,62.3,341.5,78.8z"/>
<path class="st1" d="M261.3,55.3c-29.5,0-57,8.7-80.1,23.6c16-27.7,45.9-46.4,80.1-46.4c34.3,0,64.2,18.7,80.1,46.4
	C318.3,63.9,290.8,55.3,261.3,55.3z M176.4,117.9c1.4,22.7-17.3,41.5-40,40c-18.7-1.2-34-16.4-35.1-35.1c-1.4-22.7,17.3-41.5,40-40
	C160,84,175.2,99.2,176.4,117.9z M136.6,104c-7.3,0.9-13.3,6.9-14.2,14.2c-1.4,10.8,7.7,19.8,18.5,18.5c7.3-0.9,13.3-6.9,14.2-14.2
	C156.5,111.8,147.4,102.7,136.6,104z M71.9,139.9c-10.1,0-17.2-8.5-17.2-19.3v-0.2c0-10.5,7.1-19.2,17.2-19.2
	c6.9,0,11.7,3.4,15.8,8.5l15.1-11.7c-6.4-8.8-15.9-15-30.6-15c-21.9,0-38,16.5-38,37.6v0.2c0,21.6,16.6,37.3,37.2,37.3
	c15.9,0,25.1-6.9,31.9-16.3l-15.1-10.7C83.8,136.4,79.4,139.9,71.9,139.9z M181.1,156.8h20V131h34.1v-16.6h-34.1v-12.3h37.8V84.5
	h-57.8V156.8z M298.1,114.4H264v-12.3h37.8V84.5h-57.8v72.2h20V131h34.1V114.4z M340.7,84l30.7,72.7H350l-5.2-13h-28l-5.2,13h-20.9
	L321.4,84H340.7z M338.9,128.2l-8-20.4l-8.1,20.4H338.9z M381.5,93.8c2.2,0,3.5-1,4.4-2.2l-2.1-1.5c-0.6,0.7-1.2,1.2-2.2,1.2
	c-1.4,0-2.4-1.2-2.4-2.7v0c0-1.4,1-2.6,2.4-2.6c1,0,1.6,0.5,2.2,1.2l2.1-1.6c-0.9-1.2-2.2-2.1-4.2-2.1c-3,0-5.2,2.3-5.2,5.2v0
	C376.4,91.6,378.7,93.8,381.5,93.8z M386.5,88.6L386.5,88.6c0-2.9,2.3-5.2,5.4-5.2s5.3,2.3,5.3,5.1v0c0,2.9-2.3,5.2-5.4,5.2
	S386.5,91.5,386.5,88.6z M389.3,88.6c0,1.4,1,2.7,2.6,2.7c1.5,0,2.5-1.2,2.5-2.7v0c0-1.4-1-2.7-2.5-2.7
	C390.3,85.9,389.3,87.1,389.3,88.6L389.3,88.6z M403.1,93.7c2.8,0,4.7-1.4,4.7-4.6v-5.5H405v5.6c0,1.4-0.7,2-1.8,2
	c-1.1,0-1.8-0.7-1.8-2.1v-5.5h-2.8v5.6C398.5,92.3,400.3,93.7,403.1,93.7z M412.1,88.1l4.3,5.5h2.4v-9.9h-2.7v5.3l-4.1-5.3h-2.6v9.9
	h2.7V88.1z M425.4,93.8c2.2,0,3.5-1,4.4-2.2l-2.1-1.5c-0.6,0.7-1.2,1.2-2.2,1.2c-1.4,0-2.4-1.2-2.4-2.7v0c0-1.4,1-2.6,2.4-2.6
	c1,0,1.6,0.5,2.2,1.2l2.1-1.6c-0.9-1.2-2.2-2.1-4.2-2.1c-3,0-5.2,2.3-5.2,5.2v0C420.2,91.6,422.5,93.8,425.4,93.8z M433.8,83.6H431
	v9.9h2.8V83.6z M443.2,91.1h-4.8v-7.5h-2.8v9.9h7.6V91.1z M376.4,104.2L376.4,104.2c0-2.9,2.3-5.2,5.4-5.2s5.3,2.3,5.3,5.1v0
	c0,2.9-2.3,5.2-5.4,5.2S376.4,107.1,376.4,104.2z M379.2,104.2c0,1.4,1,2.7,2.6,2.7c1.5,0,2.5-1.2,2.5-2.7v0c0-1.4-1-2.7-2.5-2.7
	C380.2,101.5,379.2,102.7,379.2,104.2L379.2,104.2z M395.2,104.5l-4.1-5.3h-2.6v9.9h2.7v-5.5l4.3,5.5h2.4v-9.9h-2.7V104.5z
	 M384.7,117.2v-2.4h-8v9.9h2.8v-3.6h4.7v-2.3h-4.7v-1.7H384.7z M394,122.4h-5.3v-1.6h4.8v-2.2h-4.8v-1.5h5.3v-2.3h-8v9.9h8.1V122.4z
	 M399.2,124.7h-3.8v-9.9h3.8c3.5,0,5.6,2,5.6,4.9v0C404.9,122.6,402.8,124.7,399.2,124.7z M402.1,119.8c0-1.6-1.1-2.5-2.8-2.5h-1.1
	v5.1h1.1C401,122.3,402.1,121.4,402.1,119.8L402.1,119.8z M414.3,117.1v-2.3h-8v9.9h8.1v-2.3H409v-1.6h4.8v-2.2H409v-1.5H414.3z
	 M425,124.7h-3.2l-2-3h-1.2v3h-2.8v-9.9h4.7c1.5,0,2.6,0.4,3.2,1.1c0.6,0.6,0.9,1.3,0.9,2.3v0c0,1.5-0.8,2.5-2,3.1L425,124.7z
	 M421.9,118.4c0-0.8-0.6-1.2-1.5-1.2h-1.8v2.4h1.8C421.3,119.6,421.9,119.1,421.9,118.4L421.9,118.4z M436.2,124.7h-3l-0.7-1.8h-3.8
	l-0.7,1.8h-2.9l4.2-10h2.7L436.2,124.7z M431.7,120.8l-1.1-2.8l-1.1,2.8H431.7z M444.7,122.3h-4.8v-7.5h-2.8v9.9h7.6V122.3z
	 M384.7,132.8v-2.4h-8v9.9h2.8v-3.6h4.7v-2.3h-4.7v-1.7H384.7z M388.8,140.3v-9.9H386v9.9H388.8z M393.3,134.9l4.3,5.5h2.4v-9.9
	h-2.7v5.3l-4.1-5.3h-2.6v9.9h2.7V134.9z M412.1,140.3h-3l-0.7-1.8h-3.8l-0.7,1.8H401l4.2-10h2.7L412.1,140.3z M407.6,136.4l-1.1-2.8
	l-1.1,2.8H407.6z M415.8,134.9l4.3,5.5h2.4v-9.9h-2.7v5.3l-4.1-5.3H413v9.9h2.7V134.9z M429,140.5c2.2,0,3.5-1,4.4-2.2l-2.1-1.5
	c-0.6,0.7-1.2,1.2-2.2,1.2c-1.4,0-2.4-1.2-2.4-2.7v0c0-1.4,1-2.6,2.4-2.6c1,0,1.6,0.5,2.2,1.2l2.1-1.6c-0.9-1.2-2.2-2.1-4.2-2.1
	c-3,0-5.2,2.3-5.2,5.2v0C423.9,138.4,426.2,140.5,429,140.5z M437.4,130.4h-2.8v9.9h2.8V130.4z M445.3,130.3l4.2,10h-3l-0.7-1.8H442
	l-0.7,1.8h-2.9l4.2-10H445.3z M445.1,136.4l-1.1-2.8l-1.1,2.8H445.1z M458.1,137.9h-4.8v-7.5h-2.8v9.9h7.6V137.9z M382.8,145.9
	l4.2,10h-3l-0.7-1.8h-3.8l-0.7,1.8h-2.9l4.2-10H382.8z M382.6,152l-1.1-2.8l-1.1,2.8H382.6z M392.1,149.7c-1.4-0.3-1.7-0.5-1.7-1v0
	c0-0.4,0.3-0.6,1-0.6c0.9,0,1.9,0.3,2.8,1l1.4-1.9c-1.1-0.9-2.4-1.3-4.1-1.3c-2.4,0-3.8,1.3-3.8,3.2v0c0,2,1.6,2.6,3.8,3.1
	c1.4,0.3,1.7,0.5,1.7,1v0c0,0.4-0.4,0.7-1.2,0.7c-1.2,0-2.2-0.4-3.2-1.2l-1.5,1.8c1.2,1.1,2.9,1.6,4.7,1.6c2.4,0,4-1.2,4-3.2v0
	C395.8,151,394.4,150.2,392.1,149.7z M401.2,149.7c-1.4-0.3-1.7-0.5-1.7-1v0c0-0.4,0.3-0.6,1-0.6c0.9,0,1.9,0.3,2.8,1l1.4-1.9
	c-1.1-0.9-2.4-1.3-4.1-1.3c-2.4,0-3.8,1.3-3.8,3.2v0c0,2,1.6,2.6,3.8,3.1c1.4,0.3,1.7,0.5,1.7,1v0c0,0.4-0.4,0.7-1.2,0.7
	c-1.2,0-2.2-0.4-3.2-1.2l-1.5,1.8c1.2,1.1,2.9,1.6,4.7,1.6c2.4,0,4-1.2,4-3.2v0C404.9,151,403.5,150.2,401.2,149.7z M406.3,155.9
	h2.8V146h-2.8V155.9z M415.1,149.7c-1.4-0.3-1.7-0.5-1.7-1v0c0-0.4,0.3-0.6,1-0.6c0.9,0,1.9,0.3,2.8,1l1.4-1.9
	c-1.1-0.9-2.4-1.3-4.1-1.3c-2.4,0-3.8,1.3-3.8,3.2v0c0,2,1.6,2.6,3.8,3.1c1.4,0.3,1.7,0.5,1.7,1v0c0,0.4-0.4,0.7-1.2,0.7
	c-1.2,0-2.2-0.4-3.2-1.2l-1.5,1.8c1.2,1.1,2.9,1.6,4.7,1.6c2.4,0,4-1.2,4-3.2v0C418.8,151,417.4,150.2,415.1,149.7z M428.1,146h-8.7
	v2.4h3v7.5h2.8v-7.5h3V146z M434.1,145.9l4.2,10h-3l-0.7-1.8h-3.8l-0.7,1.8h-2.9l4.2-10H434.1z M433.8,152l-1.1-2.8l-1.1,2.8H433.8z
	 M445.9,151.2l-4.1-5.3h-2.6v9.9h2.7v-5.5l4.3,5.5h2.4V146h-2.7V151.2z M455.3,153.6c-1.4,0-2.4-1.2-2.4-2.7v0c0-1.4,1-2.6,2.4-2.6
	c1,0,1.6,0.5,2.2,1.2l2.1-1.6c-0.9-1.2-2.2-2.1-4.2-2.1c-3,0-5.2,2.3-5.2,5.2v0c0,3,2.3,5.1,5.1,5.1c2.2,0,3.5-1,4.4-2.2l-2.1-1.5
	C457,153.1,456.3,153.6,455.3,153.6z M463.6,153.6V152h4.8v-2.2h-4.8v-1.5h5.3V146h-8v9.9h8.1v-2.3H463.6z"/>
</svg>
