<svg xmlns="http://www.w3.org/2000/svg" viewBox="0 0 54.77 62.44"><defs><style>.cls-1,.cls-3{fill:none;stroke-width:1.65px;}.cls-1,.cls-2,.cls-3{stroke:#f26544;stroke-miterlimit:10;}.cls-2{fill:#fff;stroke-width:1.79px;}.cls-3{stroke-linecap:round;}</style></defs><g id="Layer_2" data-name="Layer 2"><g id="Layer_1-2" data-name="Layer 1"><path class="cls-1" d="M49.49,27.06H5.29A4.46,4.46,0,0,0,.83,31.52v20.3a4.46,4.46,0,0,0,4.46,4.46H21.68a5.33,5.33,0,0,0,10.66,0H49.49A4.46,4.46,0,0,0,54,51.82V31.52A4.46,4.46,0,0,0,49.49,27.06Z"/><rect class="cls-2" x="9.17" y="0.9" width="36.44" height="50.2" rx="4.46"/><circle class="cls-2" cx="27.82" cy="10.43" r="5.85"/><line class="cls-3" x1="13.81" y1="22.73" x2="24.02" y2="22.73"/><line class="cls-3" x1="13.81" y1="29.99" x2="24.02" y2="29.99"/><line class="cls-3" x1="13.81" y1="37.24" x2="24.02" y2="37.24"/><line class="cls-3" x1="13.81" y1="44.5" x2="24.02" y2="44.5"/><line class="cls-3" x1="30.76" y1="22.73" x2="40.96" y2="22.73"/><line class="cls-3" x1="30.76" y1="29.99" x2="40.96" y2="29.99"/><line class="cls-3" x1="30.76" y1="37.24" x2="40.96" y2="37.24"/><line class="cls-3" x1="30.76" y1="44.5" x2="40.96" y2="44.5"/></g></g></svg>