<svg xmlns="http://www.w3.org/2000/svg" xmlns:xlink="http://www.w3.org/1999/xlink" width="340" height="335" viewBox="0 0 340 335" fill="none">
  <defs>
    <clipPath id="clip-path">
      <rect id="Rectangle_138" data-name="Rectangle 138" width="167" height="167" fill="#4f9e99"/>
    </clipPath>
    <clipPath id="clip-Major_Legislation">
      <rect width="340" height="335"/>
    </clipPath>
  </defs>
  <g id="Major_Legislation" data-name="Major Legislation" clip-path="url(#clip-Major_Legislation)">
    <rect width="340" height="335"/>
    <g id="Group_64" data-name="Group 64" transform="translate(87 84)">
      <g id="Group_53" data-name="Group 53" clip-path="url(#clip-path)">
        <path id="Path_45" data-name="Path 45" d="M147.469,26.45a3.248,3.248,0,0,0-.2-.3,3.41,3.41,0,0,0-.6-.832c-.023-.021-.03-.05-.05-.07L119.683.9A3.474,3.474,0,0,0,117.35,0H29.489A3.479,3.479,0,0,0,26.01,3.479V66.1a3.479,3.479,0,0,0,6.958,0V6.958h80V27.833a3.478,3.478,0,0,0,3.479,3.479h24.354V160.042H57.279a3.479,3.479,0,1,0,0,6.958h87.005a3.479,3.479,0,0,0,3.479-3.479V27.833a3.433,3.433,0,0,0-.294-1.383M119.93,10.5l15.319,13.851H119.93Z" transform="translate(19.237)" fill="#4f9e99"/>
        <path id="Path_46" data-name="Path 46" d="M95.745,26.958a3.479,3.479,0,1,0,0-6.958H49.068a3.479,3.479,0,0,0,0,6.958Z" transform="translate(33.717 14.792)" fill="#4f9e99"/>
        <path id="Path_47" data-name="Path 47" d="M38.01,31.479a3.48,3.48,0,0,0,3.479,3.479h73.045a3.479,3.479,0,0,0,0-6.958H41.489a3.479,3.479,0,0,0-3.479,3.479" transform="translate(28.112 20.708)" fill="#4f9e99"/>
        <path id="Path_48" data-name="Path 48" d="M41.489,42.958h73.045a3.479,3.479,0,0,0,0-6.958H41.489a3.479,3.479,0,1,0,0,6.958" transform="translate(28.112 26.625)" fill="#4f9e99"/>
        <path id="Path_49" data-name="Path 49" d="M99.536,44H61.769a3.479,3.479,0,1,0,0,6.958H99.536a3.479,3.479,0,0,0,0-6.958" transform="translate(43.11 32.542)" fill="#4f9e99"/>
        <path id="Path_50" data-name="Path 50" d="M99.536,52H61.769a3.479,3.479,0,1,0,0,6.958H99.536a3.479,3.479,0,0,0,0-6.958" transform="translate(43.11 38.458)" fill="#4f9e99"/>
        <path id="Path_51" data-name="Path 51" d="M99.536,60H61.769a3.479,3.479,0,1,0,0,6.958H99.536a3.479,3.479,0,0,0,0-6.958" transform="translate(43.11 44.375)" fill="#4f9e99"/>
        <path id="Path_52" data-name="Path 52" d="M93.893,81.164H69.4a3.479,3.479,0,0,0,0,6.958H93.893a3.479,3.479,0,0,0,0-6.958" transform="translate(48.753 60.028)" fill="#4f9e99"/>
        <path id="Path_53" data-name="Path 53" d="M68.473,89.167a3.478,3.478,0,0,0-3.479,3.479v6.362a16.6,16.6,0,1,0,33.2,0V92.646a3.479,3.479,0,0,0-3.479-3.479H93.7L84.867,65c3.916-.675,7-2.559,8.675-5.335a8.859,8.859,0,0,0,.877-6.955,7.345,7.345,0,0,0-3.771-4.62,3.479,3.479,0,0,0-3.083,6.238.67.67,0,0,1,.176.336,1.9,1.9,0,0,1-.155,1.406,5.726,5.726,0,0,1-4,2.1C78.608,59,73.442,56.908,67.976,54.7c-5.06-2.037-10.267-4.1-15.788-4.1V47.479a3.479,3.479,0,0,0-6.958,0V50.61c-5.514.009-10.714,2.058-15.769,4.093-5.469,2.2-10.638,4.285-15.618,3.469a5.725,5.725,0,0,1-3.994-2.1,1.9,1.9,0,0,1-.153-1.407.671.671,0,0,1,.172-.334,3.479,3.479,0,0,0-3.081-6.238,7.337,7.337,0,0,0-3.77,4.62,8.851,8.851,0,0,0,.877,6.955c1.7,2.815,4.834,4.725,8.827,5.375.3.049.59.035.887.071L4.813,89.167H3.479A3.479,3.479,0,0,0,0,92.646v6.362a16.6,16.6,0,0,0,33.2,0V92.646a3.478,3.478,0,0,0-3.479-3.479h-.63L21.028,64.776a61.665,61.665,0,0,0,11.031-3.617c4.584-1.846,8.964-3.577,13.17-3.592V127.5H34.792a3.479,3.479,0,1,0,0,6.958H62.625a3.479,3.479,0,1,0,0-6.958H52.188V57.57c4.213.014,8.6,1.741,13.188,3.589A56.593,56.593,0,0,0,77.42,64.978l-8,24.189Zm-42.23,9.841a9.643,9.643,0,0,1-19.285,0V96.125H26.243ZM12.224,89.167,17.232,75.46l4.533,13.706Zm79.014,9.841a9.643,9.643,0,0,1-19.285,0V96.125H91.238ZM81.282,75.46,86.29,89.167H76.749Z" transform="translate(0 32.542)" fill="#4f9e99"/>
      </g>
    </g>
  </g>
</svg>
