<svg xmlns="http://www.w3.org/2000/svg" xmlns:xlink="http://www.w3.org/1999/xlink" width="170" height="170" viewBox="0 0 170 170" fill="none">
  <defs>
    <clipPath id="clip-path">
      <rect id="Rectangle_100" data-name="Rectangle 100" width="75.742" height="88.439" fill="none" stroke="#e06e4f" stroke-width="4"/>
    </clipPath>
    <clipPath id="clip-Payment_Integrity">
      <rect width="170" height="170"/>
    </clipPath>
  </defs>
  <g id="Payment_Integrity" data-name="Payment Integrity" clip-path="url(#clip-Payment_Integrity)">
    <rect width="170" height="170"/>
    <g id="Group_9" data-name="Group 9" transform="translate(47.129 40.78)">
      <g id="Group_8" data-name="Group 8" clip-path="url(#clip-path)">
        <path id="Path_32" data-name="Path 32" d="M73.091,67.613c-5.5,9.242-15.172,16.914-27.976,22.187a10.282,10.282,0,0,1-7.879,0C25,84.763,15.916,77.818,10.225,69.156,4.878,61.019,4.462,54.285,4.462,52.415V23.171a5.531,5.531,0,0,1,5.072-5.48c10.927-.869,21.66-5.36,28.013-11.722a5.12,5.12,0,0,1,7.255,0c6.353,6.362,17.086,10.853,28.013,11.722a5.531,5.531,0,0,1,5.072,5.48V52.415c0,1.674-.346,7.717-4.8,15.2" transform="translate(-3.304 -3.304)" fill="none" stroke="#e06e4f" stroke-linecap="round" stroke-linejoin="round" stroke-width="4"/>
        <path id="Path_33" data-name="Path 33" d="M95.243,64.926v-5.5a1.151,1.151,0,0,0-.982-1.135,55.92,55.92,0,0,1-25.726-10.67,1.032,1.032,0,0,0-1.28,0,51.664,51.664,0,0,1-14.534,7.852A61.209,61.209,0,0,1,41.529,58.3a1.15,1.15,0,0,0-.981,1.134v17.38" transform="translate(-30.024 -35.1)" fill="none" stroke="#e06e4f" stroke-linecap="round" stroke-linejoin="round" stroke-width="4"/>
        <path id="Path_34" data-name="Path 34" d="M40.548,154.992v7.4c0,2.054.986,6.95,4.682,12.276,4.49,6.472,11.526,11.8,20.953,15.886a4.316,4.316,0,0,0,3.424,0c9.427-4.083,16.463-9.414,20.954-15.886,3.7-5.326,4.682-10.223,4.682-12.276v-9.4" transform="translate(-30.024 -113.283)" fill="none" stroke="#e06e4f" stroke-linecap="round" stroke-linejoin="round" stroke-width="4"/>
        <path id="Path_35" data-name="Path 35" d="M92.894,157.073,79.3,143.482l5.912-5.912,7.646,7.645,15.688-15.688,5.945,5.945-17.6,17.6" transform="translate(-58.721 -95.91)" fill="none" stroke="#e06e4f" stroke-linecap="round" stroke-linejoin="round" stroke-width="4"/>
      </g>
    </g>
  </g>
</svg>
