<svg xmlns="http://www.w3.org/2000/svg" xmlns:xlink="http://www.w3.org/1999/xlink" width="115" height="104" viewBox="0 0 115 104">
  <defs>
    <clipPath id="clip-path">
      <rect id="Rectangle_6" data-name="Rectangle 6" width="81.997" height="75.619" fill="none" stroke="#093468" stroke-width="3"/>
    </clipPath>
    <clipPath id="clip-Uniform_guidance">
      <rect width="115" height="104"/>
    </clipPath>
  </defs>
  <g id="Uniform_guidance" data-name="Uniform guidance" clip-path="url(#clip-Uniform_guidance)">
    <rect width="115" height="104" fill="#fff"/>
    <g id="Group_26" data-name="Group 26" transform="translate(18.501 14.69)">
      <g id="Group_1" data-name="Group 1" clip-path="url(#clip-path)">
        <path id="Path_1" data-name="Path 1" d="M129.854,98.953l-13.436,17.566a.308.308,0,0,1-.458.036l-11.023-10.474a.267.267,0,0,1-.022-.364l4.275-5.212a.267.267,0,0,1,.386-.028l5.774,5.231L124.729,94a.267.267,0,0,1,.4-.024l4.7,4.621A.268.268,0,0,1,129.854,98.953Z" transform="translate(-58.929 -52.774)" fill="none" stroke="#43a36a" stroke-linecap="round" stroke-miterlimit="10" stroke-width="3"/>
        <path id="Path_2" data-name="Path 2" d="M127.839,91.65a21.955,21.955,0,1,1-20.833-23.022A21.954,21.954,0,0,1,127.839,91.65Z" transform="translate(-47.184 -38.554)" fill="none" stroke="#43a36a" stroke-linecap="round" stroke-miterlimit="10" stroke-width="3"/>
        <path id="Path_3" data-name="Path 3" d="M112.625,32.006V18.014a2.7,2.7,0,0,0-2.7-2.7H98.87" transform="translate(-55.566 -8.608)" fill="none" stroke="#093468" stroke-linecap="round" stroke-miterlimit="10" stroke-width="3"/>
        <path id="Path_4" data-name="Path 4" d="M16.756,15.316H5.7a2.7,2.7,0,0,0-2.7,2.7v62.2a2.7,2.7,0,0,0,2.7,2.7H43.052" transform="translate(-1.686 -8.608)" fill="none" stroke="#093468" stroke-linecap="round" stroke-miterlimit="10" stroke-width="3"/>
        <path id="Rectangle_5" data-name="Rectangle 5" d="M5.394,0H22.84a5.394,5.394,0,0,1,5.394,5.394v0a5.395,5.395,0,0,1-5.395,5.395H5.394A5.394,5.394,0,0,1,0,5.395v0A5.394,5.394,0,0,1,5.394,0Z" transform="translate(15.069 1.314)" fill="none" stroke="#093468" stroke-linecap="round" stroke-miterlimit="10" stroke-width="3"/>
        <path id="Path_5" data-name="Path 5" d="M30.418,49.6l-4.3,4.3a.247.247,0,0,1-.348,0L23.4,51.519" transform="translate(-13.149 -27.876)" fill="none" stroke="#093468" stroke-linecap="round" stroke-miterlimit="10" stroke-width="3"/>
        <path id="Path_6" data-name="Path 6" d="M30.418,92.611l-4.3,4.3a.246.246,0,0,1-.348,0L23.4,94.53" transform="translate(-13.149 -52.048)" fill="none" stroke="#093468" stroke-linecap="round" stroke-miterlimit="10" stroke-width="3"/>
        <path id="Path_7" data-name="Path 7" d="M30.418,135.62l-4.3,4.3a.247.247,0,0,1-.348,0L23.4,137.539" transform="translate(-13.149 -76.22)" fill="none" stroke="#093468" stroke-linecap="round" stroke-miterlimit="10" stroke-width="3"/>
        <line id="Line_1" data-name="Line 1" x2="21.767" transform="translate(24.837 23.909)" fill="none" stroke="#093468" stroke-linecap="round" stroke-miterlimit="10" stroke-width="3"/>
        <line id="Line_2" data-name="Line 2" x2="6.288" transform="translate(24.837 42.747)" fill="none" stroke="#093468" stroke-linecap="round" stroke-miterlimit="10" stroke-width="3"/>
        <line id="Line_3" data-name="Line 3" x2="5.644" transform="translate(24.837 61.585)" fill="none" stroke="#093468" stroke-linecap="round" stroke-miterlimit="10" stroke-width="3"/>
      </g>
    </g>
  </g>
</svg>
